<?xml version="1.0" encoding="UTF-8"?>
<svg id="_层_1" data-name="图层 1" xmlns="http://www.w3.org/2000/svg" xmlns:xlink="http://www.w3.org/1999/xlink" viewBox="0 0 960.06 540">
  <defs>
    <style>
      .cls-1, .cls-2, .cls-3, .cls-4, .cls-5, .cls-6 {
        fill: none;
      }

      .cls-1, .cls-2, .cls-3, .cls-5, .cls-6 {
        stroke-miterlimit: 8;
      }

      .cls-1, .cls-3, .cls-5 {
        stroke-width: 1.5px;
      }

      .cls-1, .cls-6 {
        stroke: #000;
      }

      .cls-7 {
        fill: #fff;
      }

      .cls-2 {
        stroke: #d0cece;
        stroke-width: 3px;
      }

      .cls-8 {
        clip-path: url(#clippath-2);
      }

      .cls-9 {
        fill: #e2f0d9;
      }

      .cls-10 {
        clip-path: url(#clippath-6);
      }

      .cls-11 {
        clip-path: url(#clippath-7);
      }

      .cls-3 {
        stroke: #843c0c;
      }

      .cls-12 {
        clip-path: url(#clippath-1);
      }

      .cls-13 {
        clip-path: url(#clippath-4);
      }

      .cls-14 {
        clip-path: url(#clippath);
      }

      .cls-15 {
        clip-path: url(#clippath-3);
      }

      .cls-5 {
        stroke: #385723;
      }

      .cls-16 {
        clip-path: url(#clippath-5);
      }

      .cls-17 {
        fill: #fbe5d6;
      }

      .cls-18 {
        fill: #ededed;
      }
    </style>
    <clipPath id="clippath">
      <rect class="cls-4" width="960" height="540"/>
    </clipPath>
    <clipPath id="clippath-1">
      <rect class="cls-4" width="960" height="540"/>
    </clipPath>
    <clipPath id="clippath-2">
      <rect class="cls-4" width="960" height="540"/>
    </clipPath>
    <clipPath id="clippath-3">
      <rect class="cls-4" width="960" height="540"/>
    </clipPath>
    <clipPath id="clippath-4">
      <rect class="cls-4" width="960" height="540"/>
    </clipPath>
    <clipPath id="clippath-5">
      <rect class="cls-4" width="960" height="540"/>
    </clipPath>
    <clipPath id="clippath-6">
      <rect class="cls-4" width="960" height="540"/>
    </clipPath>
    <clipPath id="clippath-7">
      <rect class="cls-4" width="960" height="540"/>
    </clipPath>
  </defs>
  <rect class="cls-7" width="960" height="540"/>
  <line class="cls-2" x1="543.9" y1="102.66" x2="543.9" y2="306.08"/>
  <line class="cls-2" x1="391.98" y1="102.66" x2="391.98" y2="306.08"/>
  <g class="cls-14">
    <line class="cls-2" x1=".06" y1="306.06" x2="960.06" y2="306.06"/>
  </g>
  <rect class="cls-18" x="54.06" y="264.78" width="79.56" height="79.68"/>
  <rect class="cls-1" x="54.06" y="264.78" width="79.56" height="79.68"/>
  <g>
    <path d="M79.7,303.57h-1.75v-12.57h5.19c2.21,0,3.56,1.39,3.56,3.69,0,1.82-.85,3.06-2.47,3.48l2.79,5.4h-1.96l-2.61-5.22h-2.75v5.22Zm3.37-6.73c1.12,0,1.78-.61,1.78-1.69v-.9c0-1.08-.67-1.69-1.78-1.69h-3.37v4.29h3.37Z"/>
    <path d="M89.6,303.57v-12.57h7.83v1.55h-6.09v3.66h5.64v1.55h-5.64v4.27h6.09v1.55h-7.83Z"/>
    <path d="M108.28,301.69h-.07c-.27,1.19-1.53,2.09-3.44,2.09-3.04,0-5.2-2.27-5.2-6.48s2.16-6.52,5.42-6.52c2.23,0,3.78,1.1,4.63,2.79l-1.44,.85c-.54-1.26-1.64-2.07-3.19-2.07-2.12,0-3.55,1.5-3.55,3.91v2.04c0,2.41,1.4,3.92,3.66,3.92,1.67,0,3.06-.85,3.06-2.57v-1.13h-2.68v-1.51h4.38v6.57h-1.57v-1.87Z"/>
  </g>
  <g>
    <path d="M81.1,319.53v-1.63h-3.98v-1.02l3.47-5.72h1.62v5.79h1.18v.95h-1.18v1.63h-1.1Zm-2.94-2.58h2.94v-4.81h-.07l-2.87,4.81Z"/>
    <path d="M84.13,319.53l2.24-3.13-2.17-3.08h1.32l1.5,2.21h.04l1.54-2.21h1.22l-2.19,3.02,2.24,3.19h-1.3l-1.59-2.38h-.04l-1.63,2.38h-1.18Z"/>
    <path d="M94.54,319.53v-1.63h-3.98v-1.02l3.47-5.72h1.62v5.79h1.18v.95h-1.18v1.63h-1.1Zm-2.94-2.58h2.94v-4.81h-.07l-2.87,4.81Z"/>
    <path d="M97.57,319.53l2.24-3.13-2.17-3.08h1.32l1.5,2.21h.04l1.54-2.21h1.22l-2.19,3.02,2.24,3.19h-1.3l-1.59-2.38h-.04l-1.63,2.38h-1.18Z"/>
    <path d="M104.6,319.53v-1.03h2.29v-6.29l-2.27,1.33-.44-.88,2.61-1.51h1.26v7.34h2.1v1.03h-5.55Z"/>
  </g>
  <g class="cls-12">
    <rect class="cls-17" x="179.94" y="269.7" width="100.2" height="72.72" rx="12.12" ry="12.12"/>
    <rect class="cls-3" x="179.94" y="269.7" width="100.2" height="72.72" rx="12.12" ry="12.12"/>
  </g>
  <g>
    <path d="M212.51,288.87h4.3c3.19,0,5.24,2.09,5.24,6.28s-2.05,6.28-5.24,6.28h-4.3v-12.57Zm4.3,11.02c2,0,3.37-1.33,3.37-3.73v-2.02c0-2.39-1.37-3.73-3.37-3.73h-2.56v9.47h2.56Z"/>
    <path d="M231.28,301.44c-1.03,0-1.51-.65-1.64-1.55h-.09c-.38,1.15-1.37,1.76-2.7,1.76-1.94,0-3.08-1.08-3.08-2.79,0-1.8,1.31-2.77,3.98-2.77h1.76v-.85c0-1.24-.67-1.95-2.07-1.95-1.1,0-1.8,.54-2.29,1.33l-1.01-.92c.56-1.01,1.66-1.82,3.39-1.82,2.32,0,3.65,1.19,3.65,3.21v4.92h1.04v1.42h-.95Zm-1.76-2.74v-1.44h-1.78c-1.53,0-2.21,.47-2.21,1.33v.36c0,.86,.67,1.35,1.71,1.35,1.31,0,2.29-.67,2.29-1.6Z"/>
    <path d="M236.52,301.44c-1.15,0-1.76-.68-1.76-1.76v-6.14h-1.49v-1.42h.83c.63,0,.83-.23,.83-.86v-1.71h1.51v2.57h2v1.42h-2v6.48h1.85v1.42h-1.76Z"/>
    <path d="M247.5,301.44c-1.03,0-1.51-.65-1.64-1.55h-.09c-.38,1.15-1.37,1.76-2.7,1.76-1.94,0-3.08-1.08-3.08-2.79,0-1.8,1.31-2.77,3.98-2.77h1.76v-.85c0-1.24-.67-1.95-2.07-1.95-1.1,0-1.8,.54-2.29,1.33l-1.01-.92c.56-1.01,1.66-1.82,3.39-1.82,2.32,0,3.65,1.19,3.65,3.21v4.92h1.04v1.42h-.95Zm-1.76-2.74v-1.44h-1.78c-1.53,0-2.21,.47-2.21,1.33v.36c0,.86,.67,1.35,1.71,1.35,1.31,0,2.29-.67,2.29-1.6Z"/>
  </g>
  <g>
    <path d="M214.61,321.17h-.07c-.27,1.19-1.53,2.09-3.44,2.09-3.04,0-5.2-2.27-5.2-6.48s2.16-6.52,5.42-6.52c2.23,0,3.78,1.1,4.63,2.79l-1.44,.85c-.54-1.26-1.64-2.07-3.19-2.07-2.12,0-3.55,1.5-3.55,3.91v2.04c0,2.41,1.4,3.92,3.66,3.92,1.67,0,3.06-.85,3.06-2.57v-1.13h-2.68v-1.51h4.38v6.57h-1.57v-1.87Z"/>
    <path d="M218.97,323.04v-9.33h1.67v1.78h.09c.31-.92,1.13-1.78,2.63-1.78h.56v1.67h-.83c-1.55,0-2.45,.61-2.45,1.53v6.12h-1.67Z"/>
    <path d="M224.92,318.38c0-2.97,1.71-4.88,4.25-4.88s4.25,1.91,4.25,4.88-1.71,4.88-4.25,4.88-4.25-1.91-4.25-4.88Zm6.72,.7v-1.4c0-1.82-1.01-2.74-2.47-2.74s-2.47,.92-2.47,2.74v1.4c0,1.82,1.01,2.74,2.47,2.74s2.47-.92,2.47-2.74Z"/>
    <path d="M241.38,321.51h-.09c-.34,.9-1.06,1.75-2.61,1.75-1.91,0-3.1-1.31-3.1-3.58v-5.96h1.67v5.71c0,1.57,.67,2.38,1.98,2.38,1.06,0,2.14-.54,2.14-1.71v-6.37h1.67v9.33h-1.67v-1.53Z"/>
    <path d="M246,313.71h1.67v1.53h.07c.43-1.15,1.4-1.75,2.68-1.75,2.34,0,3.75,1.85,3.75,4.88s-1.4,4.88-3.75,4.88c-1.28,0-2.25-.59-2.68-1.75h-.07v5.13h-1.67v-12.93Zm6.39,5.46v-1.58c0-1.57-.95-2.63-2.45-2.63-1.26,0-2.27,.72-2.27,1.71v3.42c0,.99,1.01,1.71,2.27,1.71,1.49,0,2.45-1.06,2.45-2.63Z"/>
  </g>
  <g class="cls-8">
    <path class="cls-9" d="M349.28,263.7h85.52c7.83,0,14.18,6.35,14.18,14.18v56.72c0,7.83-6.35,14.18-14.18,14.18h-85.52c-7.83,0-14.18-6.35-14.18-14.18v-56.72c0-7.83,6.35-14.18,14.18-14.18Z"/>
    <path class="cls-5" d="M349.28,263.7h85.52c7.83,0,14.18,6.35,14.18,14.18v56.72c0,7.83-6.35,14.18-14.18,14.18h-85.52c-7.83,0-14.18-6.35-14.18-14.18v-56.72c0-7.83,6.35-14.18,14.18-14.18Z"/>
  </g>
  <g>
    <path d="M359.14,289.07h4.3c3.19,0,5.24,2.09,5.24,6.28s-2.05,6.28-5.24,6.28h-4.3v-12.57Zm4.3,11.02c2,0,3.37-1.33,3.37-3.73v-2.02c0-2.39-1.37-3.73-3.37-3.73h-2.56v9.47h2.56Z"/>
    <path d="M372.95,301.63l-3.01-12.57h1.8l1.33,6.05,.97,4.46h.04l1.1-4.46,1.55-6.05h1.96l1.51,6.05,1.1,4.45h.05l.99-4.45,1.39-6.05h1.75l-3.17,12.57h-1.94l-1.64-6.37-1.04-4.25h-.04l-1.08,4.25-1.66,6.37h-1.96Z"/>
    <path d="M386.75,295.35c0-4.2,1.96-6.5,5.17-6.5,2.12,0,3.58,.99,4.39,2.79l-1.44,.83c-.47-1.24-1.44-2.05-2.95-2.05-2.05,0-3.29,1.53-3.29,3.98v1.91c0,2.45,1.24,3.98,3.29,3.98,1.55,0,2.59-.88,3.06-2.18l1.4,.85c-.81,1.8-2.34,2.9-4.47,2.9-3.21,0-5.17-2.3-5.17-6.5Z"/>
    <path d="M397.84,296.97c0-2.97,1.71-4.88,4.25-4.88s4.25,1.91,4.25,4.88-1.71,4.88-4.25,4.88-4.25-1.91-4.25-4.88Zm6.72,.7v-1.4c0-1.82-1.01-2.74-2.47-2.74s-2.47,.92-2.47,2.74v1.4c0,1.82,1.01,2.74,2.47,2.74s2.47-.92,2.47-2.74Z"/>
    <path d="M408.59,301.63v-9.33h1.67v1.53h.09c.43-1.03,1.22-1.75,2.63-1.75,1.91,0,3.08,1.31,3.08,3.58v5.96h-1.67v-5.71c0-1.57-.65-2.38-1.96-2.38-1.1,0-2.16,.56-2.16,1.69v6.39h-1.67Z"/>
    <path d="M420.83,301.63l-3.22-9.33h1.67l1.53,4.47,.97,3.22h.11l.99-3.22,1.55-4.47h1.6l-3.24,9.33h-1.96Z"/>
  </g>
  <g>
    <path d="M369.67,313.1h-.09l-1.03,2.05-2.88,5.28-2.88-5.28-1.03-2.07h-.09v10.16h-1.69v-12.57h2.16l3.49,6.61h.07l3.49-6.61h2.16v12.57h-1.69v-10.14Z"/>
    <path d="M380.19,321.7h-.09c-.34,.9-1.06,1.75-2.61,1.75-1.91,0-3.1-1.31-3.1-3.58v-5.96h1.67v5.71c0,1.57,.67,2.38,1.98,2.38,1.06,0,2.14-.54,2.14-1.71v-6.37h1.67v9.33h-1.67v-1.53Z"/>
    <path d="M386.56,323.23c-1.15,0-1.75-.68-1.75-1.71v-11.61h1.67v11.9h1.33v1.42h-1.26Z"/>
    <path d="M392.03,323.23c-1.15,0-1.76-.68-1.76-1.76v-6.14h-1.49v-1.42h.83c.63,0,.83-.23,.83-.86v-1.71h1.51v2.57h2v1.42h-2v6.48h1.85v1.42h-1.76Z"/>
    <path d="M402.99,323.23c-1.03,0-1.51-.65-1.64-1.55h-.09c-.38,1.15-1.37,1.76-2.7,1.76-1.94,0-3.08-1.08-3.08-2.79,0-1.8,1.31-2.77,3.98-2.77h1.76v-.85c0-1.24-.67-1.94-2.07-1.94-1.1,0-1.8,.54-2.29,1.33l-1.01-.92c.56-1.01,1.66-1.82,3.39-1.82,2.32,0,3.65,1.19,3.65,3.21v4.92h1.04v1.42h-.95Zm-1.76-2.74v-1.44h-1.78c-1.53,0-2.21,.47-2.21,1.33v.36c0,.86,.67,1.35,1.71,1.35,1.31,0,2.29-.67,2.29-1.6Z"/>
    <path d="M411.85,321.7h-.07c-.43,1.15-1.4,1.75-2.68,1.75-2.34,0-3.75-1.85-3.75-4.88s1.4-4.88,3.75-4.88c1.28,0,2.25,.59,2.68,1.75h.07v-5.53h1.67v13.32h-1.67v-1.53Zm0-1.42v-3.42c0-.99-1.01-1.71-2.27-1.71-1.49,0-2.45,1.06-2.45,2.63v1.58c0,1.57,.95,2.63,2.45,2.63,1.26,0,2.27-.72,2.27-1.71Z"/>
    <path d="M422.4,321.7h-.07c-.43,1.15-1.4,1.75-2.68,1.75-2.34,0-3.75-1.85-3.75-4.88s1.4-4.88,3.75-4.88c1.28,0,2.25,.59,2.68,1.75h.07v-5.53h1.67v13.32h-1.67v-1.53Zm0-1.42v-3.42c0-.99-1.01-1.71-2.27-1.71-1.49,0-2.45,1.06-2.45,2.63v1.58c0,1.57,.95,2.63,2.45,2.63,1.26,0,2.27-.72,2.27-1.71Z"/>
  </g>
  <line class="cls-6" x1="161.57" y1="294" x2="152.28" y2="318"/>
  <g class="cls-15">
    <rect class="cls-17" x="341.94" y="146.58" width="100.2" height="72.72" rx="12.12" ry="12.12"/>
    <rect class="cls-3" x="341.94" y="146.58" width="100.2" height="72.72" rx="12.12" ry="12.12"/>
  </g>
  <g>
    <path d="M366.81,178.34l-3.01-12.57h1.8l1.33,6.05,.97,4.47h.04l1.1-4.47,1.55-6.05h1.96l1.51,6.05,1.1,4.45h.05l.99-4.45,1.39-6.05h1.75l-3.17,12.57h-1.94l-1.64-6.37-1.04-4.25h-.04l-1.08,4.25-1.66,6.37h-1.96Z"/>
    <path d="M380.18,173.68c0-2.95,1.64-4.88,4.23-4.88s4.09,1.98,4.09,4.59v.7h-6.57v.38c0,1.55,.95,2.66,2.63,2.66,1.17,0,2.02-.56,2.52-1.51l1.08,.92c-.65,1.21-2,2.02-3.75,2.02-2.59,0-4.23-1.93-4.23-4.88Zm1.75-.88v.13h4.79v-.18c0-1.55-.9-2.59-2.3-2.59s-2.48,1.12-2.48,2.65Z"/>
    <path d="M390.64,166.15v-.25c0-.54,.31-.92,1.01-.92s1.01,.38,1.01,.92v.25c0,.54-.31,.92-1.01,.92s-1.01-.38-1.01-.92Zm.16,2.86h1.67v9.33h-1.67v-9.33Z"/>
    <path d="M398.87,182.16c-2.97,0-4.16-.83-4.16-2.27,0-1.01,.58-1.57,1.53-1.8v-.2c-.59-.23-.92-.7-.92-1.37,0-.94,.7-1.4,1.62-1.62v-.07c-1.1-.52-1.73-1.55-1.73-2.83,0-1.89,1.37-3.21,3.6-3.21,.65,0,1.22,.13,1.73,.32v-.2c0-.77,.34-1.28,1.13-1.28h1.42v1.4h-1.84v.5c.76,.56,1.17,1.42,1.17,2.45,0,1.89-1.37,3.19-3.62,3.19-.36,0-.74-.04-1.04-.11-.54,.16-1.06,.47-1.06,.99s.52,.7,1.37,.7h2.12c2.3,0,3.29,.95,3.29,2.52,0,1.93-1.48,2.86-4.63,2.86Zm1.22-3.85h-3.13c-.52,.27-.76,.67-.76,1.19,0,.77,.56,1.39,2.02,1.39h1.26c1.58,0,2.45-.47,2.45-1.42,0-.7-.47-1.15-1.84-1.15Zm.67-6.07v-.47c0-1.13-.74-1.69-1.93-1.69s-1.93,.56-1.93,1.69v.47c0,1.13,.74,1.69,1.93,1.69s1.93-.56,1.93-1.69Z"/>
    <path d="M405.07,165.02h1.67v5.53h.09c.43-1.03,1.22-1.75,2.63-1.75,1.91,0,3.08,1.31,3.08,3.58v5.96h-1.67v-5.71c0-1.57-.65-2.38-1.96-2.38-1.1,0-2.16,.56-2.16,1.69v6.39h-1.67v-13.32Z"/>
    <path d="M417.67,178.34c-1.15,0-1.76-.68-1.76-1.76v-6.14h-1.49v-1.42h.83c.63,0,.83-.23,.83-.86v-1.71h1.51v2.57h2v1.42h-2v6.48h1.85v1.42h-1.76Z"/>
  </g>
  <g>
    <path d="M358.74,198l1.24-1.12c.88,1.13,1.93,1.75,3.33,1.75,1.71,0,2.63-.88,2.63-2.21,0-1.1-.59-1.67-2.16-2.02l-1.06-.22c-2.36-.49-3.6-1.55-3.6-3.51,0-2.23,1.69-3.51,4.27-3.51,1.89,0,3.24,.7,4.2,2l-1.28,1.03c-.67-.92-1.58-1.49-3.01-1.49-1.53,0-2.45,.67-2.45,1.91,0,1.12,.7,1.62,2.2,1.94l1.06,.22c2.47,.54,3.56,1.64,3.56,3.56,0,2.32-1.64,3.83-4.43,3.83-2.05,0-3.49-.83-4.5-2.16Z"/>
    <path d="M369.38,195.28c0-2.95,1.64-4.88,4.23-4.88s4.09,1.98,4.09,4.59v.7h-6.57v.38c0,1.55,.95,2.66,2.63,2.66,1.17,0,2.02-.56,2.52-1.51l1.08,.92c-.65,1.21-2,2.02-3.75,2.02-2.59,0-4.23-1.93-4.23-4.88Zm1.75-.88v.13h4.79v-.18c0-1.55-.9-2.59-2.3-2.59s-2.48,1.12-2.48,2.65Z"/>
    <path d="M381.75,199.94c-1.15,0-1.75-.68-1.75-1.71v-11.61h1.67v11.9h1.33v1.42h-1.26Z"/>
    <path d="M384.37,195.28c0-2.95,1.64-4.88,4.23-4.88s4.09,1.98,4.09,4.59v.7h-6.57v.38c0,1.55,.95,2.66,2.63,2.66,1.17,0,2.02-.56,2.52-1.51l1.08,.92c-.65,1.21-2,2.02-3.75,2.02-2.59,0-4.23-1.93-4.23-4.88Zm1.75-.88v.13h4.79v-.18c0-1.55-.9-2.59-2.3-2.59s-2.48,1.12-2.48,2.65Z"/>
    <path d="M394.33,195.28c0-2.99,1.53-4.88,4.2-4.88,1.84,0,2.99,.9,3.53,2.23l-1.39,.68c-.31-.92-1.06-1.48-2.14-1.48-1.6,0-2.41,1.1-2.41,2.63v1.62c0,1.53,.81,2.63,2.41,2.63,1.13,0,1.91-.58,2.38-1.58l1.22,.76c-.59,1.4-1.82,2.27-3.6,2.27-2.66,0-4.2-1.89-4.2-4.88Z"/>
    <path d="M406.39,199.94c-1.15,0-1.76-.68-1.76-1.76v-6.14h-1.49v-1.42h.83c.63,0,.83-.23,.83-.86v-1.71h1.51v2.57h2v1.42h-2v6.48h1.85v1.42h-1.76Z"/>
    <path d="M409.81,195.28c0-2.97,1.71-4.88,4.25-4.88s4.25,1.91,4.25,4.88-1.71,4.88-4.25,4.88-4.25-1.91-4.25-4.88Zm6.72,.7v-1.4c0-1.82-1.01-2.74-2.47-2.74s-2.47,.92-2.47,2.74v1.4c0,1.82,1.01,2.74,2.47,2.74s2.47-.92,2.47-2.74Z"/>
    <path d="M420.55,199.94v-9.33h1.67v1.78h.09c.31-.92,1.13-1.78,2.63-1.78h.56v1.67h-.83c-1.55,0-2.45,.61-2.45,1.53v6.12h-1.67Z"/>
  </g>
  <rect class="cls-18" x="280.14" y="49.14" width="372.36" height="53.52"/>
  <rect class="cls-1" x="280.14" y="49.14" width="372.36" height="53.52"/>
  <g>
    <path d="M442.78,80.12l1.24-1.12c.88,1.13,1.93,1.75,3.33,1.75,1.71,0,2.63-.88,2.63-2.21,0-1.1-.59-1.67-2.16-2.02l-1.06-.22c-2.36-.49-3.6-1.55-3.6-3.51,0-2.23,1.69-3.51,4.27-3.51,1.89,0,3.24,.7,4.2,2l-1.28,1.03c-.67-.92-1.58-1.49-3.01-1.49-1.53,0-2.45,.67-2.45,1.91,0,1.12,.7,1.62,2.2,1.94l1.06,.22c2.47,.54,3.56,1.64,3.56,3.56,0,2.32-1.64,3.83-4.43,3.83-2.05,0-3.49-.83-4.5-2.16Z"/>
    <path d="M455.98,82.06h-1.75v-12.57h5.19c2.21,0,3.56,1.39,3.56,3.69,0,1.82-.85,3.06-2.47,3.48l2.79,5.4h-1.96l-2.61-5.22h-2.75v5.22Zm3.37-6.73c1.12,0,1.78-.61,1.78-1.69v-.9c0-1.08-.67-1.69-1.78-1.69h-3.37v4.29h3.37Z"/>
    <path d="M473.71,82.06l-1.19-3.55h-4.9l-1.21,3.55h-1.76l4.36-12.57h2.2l4.34,12.57h-1.84Zm-3.6-10.97h-.09l-1.98,5.87h4.05l-1.98-5.87Z"/>
    <path d="M487.23,71.93h-.09l-1.03,2.05-2.88,5.28-2.88-5.28-1.03-2.07h-.09v10.16h-1.69v-12.57h2.16l3.49,6.61h.07l3.49-6.61h2.16v12.57h-1.69v-10.14Z"/>
  </g>
  <g class="cls-13">
    <path class="cls-9" d="M498.92,263.7h91.88c7.83,0,14.18,6.35,14.18,14.18v56.72c0,7.83-6.35,14.18-14.18,14.18h-91.88c-7.83,0-14.18-6.35-14.18-14.18v-56.72c0-7.83,6.35-14.18,14.18-14.18Z"/>
    <path class="cls-5" d="M498.92,263.7h91.88c7.83,0,14.18,6.35,14.18,14.18v56.72c0,7.83-6.35,14.18-14.18,14.18h-91.88c-7.83,0-14.18-6.35-14.18-14.18v-56.72c0-7.83,6.35-14.18,14.18-14.18Z"/>
  </g>
  <g>
    <path d="M512.06,289.07h4.3c3.19,0,5.24,2.09,5.24,6.28s-2.05,6.28-5.24,6.28h-4.3v-12.57Zm4.3,11.02c2,0,3.37-1.33,3.37-3.73v-2.02c0-2.39-1.37-3.73-3.37-3.73h-2.56v9.47h2.56Z"/>
    <path d="M525.86,301.63l-3.01-12.57h1.8l1.33,6.05,.97,4.46h.04l1.1-4.46,1.55-6.05h1.96l1.51,6.05,1.1,4.45h.05l.99-4.45,1.39-6.05h1.75l-3.17,12.57h-1.94l-1.64-6.37-1.04-4.25h-.04l-1.08,4.25-1.66,6.37h-1.96Z"/>
    <path d="M539.67,295.35c0-4.2,1.96-6.5,5.17-6.5,2.12,0,3.58,.99,4.39,2.79l-1.44,.83c-.47-1.24-1.44-2.05-2.95-2.05-2.05,0-3.29,1.53-3.29,3.98v1.91c0,2.45,1.24,3.98,3.29,3.98,1.55,0,2.59-.88,3.06-2.18l1.41,.85c-.81,1.8-2.34,2.9-4.47,2.9-3.21,0-5.17-2.3-5.17-6.5Z"/>
    <path d="M550.76,296.97c0-2.97,1.71-4.88,4.25-4.88s4.25,1.91,4.25,4.88-1.71,4.88-4.25,4.88-4.25-1.91-4.25-4.88Zm6.72,.7v-1.4c0-1.82-1.01-2.74-2.47-2.74s-2.47,.92-2.47,2.74v1.4c0,1.82,1.01,2.74,2.47,2.74s2.47-.92,2.47-2.74Z"/>
    <path d="M561.52,301.63v-9.33h1.67v1.53h.09c.43-1.03,1.22-1.75,2.63-1.75,1.91,0,3.08,1.31,3.08,3.58v5.96h-1.67v-5.71c0-1.57-.65-2.38-1.96-2.38-1.1,0-2.16,.56-2.16,1.69v6.39h-1.67Z"/>
    <path d="M573.76,301.63l-3.22-9.33h1.67l1.53,4.47,.97,3.22h.11l.99-3.22,1.55-4.47h1.6l-3.24,9.33h-1.96Z"/>
  </g>
  <g>
    <path d="M537.89,323.23l-1.19-3.55h-4.9l-1.21,3.55h-1.76l4.36-12.57h2.2l4.34,12.57h-1.84Zm-3.6-10.96h-.09l-1.98,5.87h4.05l-1.98-5.87Z"/>
    <path d="M547.48,321.7h-.07c-.43,1.15-1.41,1.75-2.68,1.75-2.34,0-3.75-1.85-3.75-4.88s1.41-4.88,3.75-4.88c1.28,0,2.25,.59,2.68,1.75h.07v-5.53h1.67v13.32h-1.67v-1.53Zm0-1.42v-3.42c0-.99-1.01-1.71-2.27-1.71-1.49,0-2.45,1.06-2.45,2.63v1.58c0,1.57,.95,2.63,2.45,2.63,1.26,0,2.27-.72,2.27-1.71Z"/>
    <path d="M558.03,321.7h-.07c-.43,1.15-1.4,1.75-2.68,1.75-2.34,0-3.75-1.85-3.75-4.88s1.41-4.88,3.75-4.88c1.28,0,2.25,.59,2.68,1.75h.07v-5.53h1.67v13.32h-1.67v-1.53Zm0-1.42v-3.42c0-.99-1.01-1.71-2.27-1.71-1.49,0-2.45,1.06-2.45,2.63v1.58c0,1.57,.95,2.63,2.45,2.63,1.26,0,2.27-.72,2.27-1.71Z"/>
  </g>
  <g class="cls-16">
    <rect class="cls-9" x="655.26" y="263.34" width="105" height="85.44" rx="14.24" ry="14.24"/>
    <rect class="cls-5" x="655.26" y="263.34" width="105" height="85.44" rx="14.24" ry="14.24"/>
  </g>
  <g>
    <path d="M674.93,278.07h4.3c3.19,0,5.24,2.09,5.24,6.28s-2.05,6.28-5.24,6.28h-4.3v-12.57Zm4.3,11.02c2,0,3.37-1.33,3.37-3.73v-2.02c0-2.39-1.37-3.73-3.37-3.73h-2.56v9.47h2.56Z"/>
    <path d="M688.73,290.64l-3.01-12.57h1.8l1.33,6.05,.97,4.46h.04l1.1-4.46,1.55-6.05h1.96l1.51,6.05,1.1,4.45h.05l.99-4.45,1.39-6.05h1.75l-3.17,12.57h-1.94l-1.64-6.37-1.04-4.25h-.04l-1.08,4.25-1.66,6.37h-1.96Z"/>
    <path d="M702.54,284.36c0-4.2,1.96-6.5,5.17-6.5,2.12,0,3.58,.99,4.39,2.79l-1.44,.83c-.47-1.24-1.44-2.05-2.95-2.05-2.05,0-3.29,1.53-3.29,3.98v1.91c0,2.45,1.24,3.98,3.29,3.98,1.55,0,2.59-.88,3.06-2.18l1.41,.85c-.81,1.8-2.34,2.9-4.47,2.9-3.21,0-5.17-2.3-5.17-6.5Z"/>
    <path d="M713.63,285.98c0-2.97,1.71-4.88,4.25-4.88s4.25,1.91,4.25,4.88-1.71,4.88-4.25,4.88-4.25-1.91-4.25-4.88Zm6.72,.7v-1.4c0-1.82-1.01-2.74-2.47-2.74s-2.47,.92-2.47,2.74v1.4c0,1.82,1.01,2.74,2.47,2.74s2.47-.92,2.47-2.74Z"/>
    <path d="M724.39,290.64v-9.33h1.67v1.53h.09c.43-1.03,1.22-1.75,2.63-1.75,1.91,0,3.08,1.31,3.08,3.58v5.96h-1.67v-5.71c0-1.57-.65-2.38-1.96-2.38-1.1,0-2.16,.56-2.16,1.69v6.39h-1.67Z"/>
    <path d="M736.63,290.64l-3.22-9.33h1.67l1.53,4.47,.97,3.22h.11l.99-3.22,1.55-4.47h1.6l-3.24,9.33h-1.96Z"/>
  </g>
  <g>
    <path d="M679.07,312.24h-1.75v-12.57h5.19c2.21,0,3.57,1.39,3.57,3.69,0,1.82-.85,3.06-2.47,3.48l2.79,5.4h-1.96l-2.61-5.22h-2.75v5.22Zm3.37-6.73c1.12,0,1.78-.61,1.78-1.69v-.9c0-1.08-.67-1.69-1.78-1.69h-3.37v4.29h3.37Z"/>
    <path d="M687.92,307.58c0-2.95,1.64-4.88,4.23-4.88s4.09,1.98,4.09,4.59v.7h-6.57v.38c0,1.55,.95,2.67,2.63,2.67,1.17,0,2.02-.56,2.52-1.51l1.08,.92c-.65,1.21-2,2.02-3.74,2.02-2.59,0-4.23-1.93-4.23-4.88Zm1.75-.88v.13h4.79v-.18c0-1.55-.9-2.59-2.3-2.59s-2.49,1.12-2.49,2.65Z"/>
    <path d="M697.68,310.66l1.13-.97c.7,.88,1.57,1.39,2.7,1.39s1.84-.52,1.84-1.39c0-.68-.36-1.17-1.5-1.33l-.79-.13c-1.78-.25-3.02-.99-3.02-2.72,0-1.84,1.42-2.81,3.38-2.81,1.58,0,2.57,.56,3.37,1.49l-1.06,1.01c-.45-.59-1.24-1.12-2.36-1.12s-1.71,.52-1.71,1.31,.54,1.17,1.62,1.33l.79,.13c2.05,.31,2.9,1.21,2.9,2.65,0,1.82-1.37,2.95-3.57,2.95-1.73,0-2.86-.7-3.73-1.8Z"/>
    <path d="M706.64,307.58c0-2.99,1.53-4.88,4.2-4.88,1.84,0,2.99,.9,3.53,2.23l-1.39,.68c-.31-.92-1.06-1.48-2.14-1.48-1.6,0-2.41,1.1-2.41,2.63v1.62c0,1.53,.81,2.63,2.41,2.63,1.13,0,1.91-.58,2.38-1.58l1.22,.76c-.59,1.4-1.82,2.27-3.6,2.27-2.67,0-4.2-1.89-4.2-4.88Z"/>
    <path d="M723.22,312.24c-1.03,0-1.51-.65-1.64-1.55h-.09c-.38,1.15-1.37,1.76-2.7,1.76-1.94,0-3.08-1.08-3.08-2.79,0-1.8,1.31-2.77,3.98-2.77h1.76v-.85c0-1.24-.67-1.95-2.07-1.95-1.1,0-1.8,.54-2.29,1.33l-1.01-.92c.56-1.01,1.66-1.82,3.38-1.82,2.32,0,3.66,1.19,3.66,3.21v4.92h1.04v1.42h-.95Zm-1.76-2.74v-1.44h-1.78c-1.53,0-2.21,.47-2.21,1.33v.36c0,.86,.67,1.35,1.71,1.35,1.31,0,2.29-.67,2.29-1.6Z"/>
    <path d="M727.92,312.24c-1.15,0-1.75-.68-1.75-1.71v-11.61h1.67v11.9h1.33v1.42h-1.26Z"/>
    <path d="M730.53,307.58c0-2.95,1.64-4.88,4.23-4.88s4.09,1.98,4.09,4.59v.7h-6.57v.38c0,1.55,.95,2.67,2.63,2.67,1.17,0,2.02-.56,2.52-1.51l1.08,.92c-.65,1.21-2,2.02-3.75,2.02-2.59,0-4.23-1.93-4.23-4.88Zm1.75-.88v.13h4.79v-.18c0-1.55-.9-2.59-2.3-2.59s-2.48,1.12-2.48,2.65Z"/>
  </g>
  <path d="M689.06,332.45c-.56,.63-1.67,1.6-3.66,1.6-2.54,0-3.92-1.53-3.92-3.47s1.24-2.81,2.56-3.55c-.83-.88-1.4-1.84-1.4-2.95,0-1.69,1.31-3.03,3.35-3.03,1.84,0,3.13,1.08,3.13,2.74s-1.26,2.59-2.81,3.46l2.67,2.86c.34-.9,.52-1.93,.58-2.93h2.56v1.4h-1.24c-.18,.99-.47,1.87-.86,2.63l2.47,2.63h-2.14l-1.26-1.39Zm-.92-.99l-3.24-3.47c-.94,.5-1.69,1.08-1.69,2.34v.25c0,1.24,.92,2.03,2.38,2.03,1.12,0,1.94-.45,2.56-1.15Zm-3.89-7.47v.18c0,.68,.45,1.33,1.19,2.14,1.06-.59,2.07-1.33,2.07-2.27v-.2c0-.9-.74-1.42-1.6-1.42-.95,0-1.66,.67-1.66,1.57Z"/>
  <g>
    <path d="M696.22,333.84h-1.75v-12.57h5.19c2.21,0,3.57,1.39,3.57,3.69,0,1.82-.85,3.06-2.47,3.48l2.79,5.4h-1.96l-2.61-5.22h-2.75v5.22Zm3.37-6.73c1.12,0,1.78-.61,1.78-1.69v-.9c0-1.08-.67-1.69-1.78-1.69h-3.37v4.29h3.37Z"/>
    <path d="M705.08,329.18c0-2.95,1.64-4.88,4.23-4.88s4.09,1.98,4.09,4.59v.7h-6.57v.38c0,1.55,.95,2.67,2.63,2.67,1.17,0,2.02-.56,2.52-1.51l1.08,.92c-.65,1.21-2,2.02-3.75,2.02-2.59,0-4.23-1.93-4.23-4.88Zm1.75-.88v.13h4.79v-.18c0-1.55-.9-2.59-2.3-2.59s-2.48,1.12-2.48,2.65Z"/>
    <path d="M715.84,333.84v-12.57h1.75v11.02h5.24v1.55h-6.99Z"/>
    <path d="M726.16,321.27v7.76c0,2.29,.74,3.46,2.86,3.46s2.86-1.17,2.86-3.46v-7.76h1.75v7.42c0,3.67-1.26,5.37-4.66,5.37s-4.56-1.69-4.56-5.37v-7.42h1.75Z"/>
  </g>
  <g class="cls-10">
    <rect class="cls-17" x="498.42" y="146.58" width="90.96" height="72.72" rx="12.12" ry="12.12"/>
    <rect class="cls-3" x="498.42" y="146.58" width="90.96" height="72.72" rx="12.12" ry="12.12"/>
  </g>
  <g>
    <path d="M527.95,165.78h5.35c2.07,0,3.37,1.28,3.37,3.24s-1.21,2.56-2.12,2.66v.11c.95,.05,2.56,.83,2.56,2.94s-1.4,3.62-3.26,3.62h-5.89v-12.57Zm1.75,5.38h3.33c1.1,0,1.76-.59,1.76-1.64v-.59c0-1.04-.67-1.64-1.76-1.64h-3.33v3.87Zm0,5.67h3.62c1.19,0,1.91-.61,1.91-1.78v-.63c0-1.17-.72-1.78-1.91-1.78h-3.62v4.2Z"/>
    <path d="M539.51,166.15v-.25c0-.54,.31-.92,1.01-.92s1.01,.38,1.01,.92v.25c0,.54-.31,.92-1.01,.92s-1.01-.38-1.01-.92Zm.16,2.86h1.67v9.33h-1.67v-9.33Z"/>
    <path d="M551.14,178.34c-1.03,0-1.51-.65-1.64-1.55h-.09c-.38,1.15-1.37,1.76-2.7,1.76-1.94,0-3.08-1.08-3.08-2.79,0-1.8,1.31-2.77,3.98-2.77h1.76v-.85c0-1.24-.67-1.94-2.07-1.94-1.1,0-1.8,.54-2.29,1.33l-1.01-.92c.56-1.01,1.66-1.82,3.38-1.82,2.32,0,3.66,1.19,3.66,3.21v4.92h1.04v1.42h-.95Zm-1.76-2.74v-1.44h-1.78c-1.53,0-2.21,.47-2.21,1.33v.36c0,.86,.67,1.35,1.71,1.35,1.31,0,2.29-.67,2.29-1.6Z"/>
    <path d="M553.23,176.76l1.13-.97c.7,.88,1.57,1.39,2.7,1.39s1.84-.52,1.84-1.39c0-.68-.36-1.17-1.5-1.33l-.79-.13c-1.78-.25-3.02-.99-3.02-2.72,0-1.84,1.42-2.81,3.38-2.81,1.58,0,2.57,.56,3.37,1.49l-1.06,1.01c-.45-.59-1.24-1.12-2.36-1.12s-1.71,.52-1.71,1.31,.54,1.17,1.62,1.33l.79,.13c2.05,.31,2.9,1.21,2.9,2.65,0,1.82-1.37,2.95-3.57,2.95-1.73,0-2.86-.7-3.73-1.8Z"/>
  </g>
  <g>
    <path d="M510.64,198l1.24-1.12c.88,1.13,1.93,1.75,3.33,1.75,1.71,0,2.63-.88,2.63-2.21,0-1.1-.59-1.67-2.16-2.02l-1.06-.22c-2.36-.49-3.6-1.55-3.6-3.51,0-2.23,1.69-3.51,4.27-3.51,1.89,0,3.24,.7,4.2,2l-1.28,1.03c-.67-.92-1.58-1.49-3.01-1.49-1.53,0-2.45,.67-2.45,1.91,0,1.12,.7,1.62,2.2,1.94l1.06,.22c2.47,.54,3.57,1.64,3.57,3.56,0,2.32-1.64,3.83-4.43,3.83-2.05,0-3.49-.83-4.5-2.16Z"/>
    <path d="M521.28,195.28c0-2.95,1.64-4.88,4.23-4.88s4.09,1.98,4.09,4.59v.7h-6.57v.38c0,1.55,.95,2.66,2.63,2.66,1.17,0,2.02-.56,2.52-1.51l1.08,.92c-.65,1.21-2,2.02-3.75,2.02-2.59,0-4.23-1.93-4.23-4.88Zm1.75-.88v.13h4.79v-.18c0-1.55-.9-2.59-2.3-2.59s-2.48,1.12-2.48,2.65Z"/>
    <path d="M533.64,199.94c-1.15,0-1.75-.68-1.75-1.71v-11.61h1.67v11.9h1.33v1.42h-1.26Z"/>
    <path d="M536.25,195.28c0-2.95,1.64-4.88,4.23-4.88s4.09,1.98,4.09,4.59v.7h-6.57v.38c0,1.55,.95,2.66,2.63,2.66,1.17,0,2.02-.56,2.52-1.51l1.08,.92c-.65,1.21-2,2.02-3.74,2.02-2.59,0-4.23-1.93-4.23-4.88Zm1.75-.88v.13h4.79v-.18c0-1.55-.9-2.59-2.3-2.59s-2.49,1.12-2.49,2.65Z"/>
    <path d="M546.21,195.28c0-2.99,1.53-4.88,4.2-4.88,1.84,0,2.99,.9,3.53,2.23l-1.39,.68c-.31-.92-1.06-1.48-2.14-1.48-1.6,0-2.41,1.1-2.41,2.63v1.62c0,1.53,.81,2.63,2.41,2.63,1.13,0,1.91-.58,2.38-1.58l1.22,.76c-.59,1.4-1.82,2.27-3.6,2.27-2.67,0-4.2-1.89-4.2-4.88Z"/>
    <path d="M558.27,199.94c-1.15,0-1.76-.68-1.76-1.76v-6.14h-1.5v-1.42h.83c.63,0,.83-.23,.83-.86v-1.71h1.51v2.57h2v1.42h-2v6.48h1.85v1.42h-1.76Z"/>
    <path d="M561.69,195.28c0-2.97,1.71-4.88,4.25-4.88s4.25,1.91,4.25,4.88-1.71,4.88-4.25,4.88-4.25-1.91-4.25-4.88Zm6.72,.7v-1.4c0-1.82-1.01-2.74-2.47-2.74s-2.47,.92-2.47,2.74v1.4c0,1.82,1.01,2.74,2.47,2.74s2.47-.92,2.47-2.74Z"/>
    <path d="M572.45,199.94v-9.33h1.67v1.78h.09c.31-.92,1.13-1.78,2.63-1.78h.56v1.67h-.83c-1.55,0-2.45,.61-2.45,1.53v6.12h-1.67Z"/>
  </g>
  <line class="cls-6" x1="312.05" y1="294" x2="302.76" y2="318"/>
  <g>
    <path d="M94.94,437.92c2.82,0,5.8,.42,8.43,2.95,1.89,1.83,3.08,4.33,3.08,7.66s-1.15,5.8-2.92,7.56c-2.95,2.98-6.63,3.2-8.43,3.2h-6.92v-21.37h6.76Zm-1.83,17.21h1.31c1.03,0,3.27-.1,4.87-1.44,1.15-.96,2.08-2.79,2.08-5.16s-.93-3.78-1.76-4.61c-1.6-1.6-3.69-1.83-5.19-1.83h-1.31v13.04Z"/>
    <path d="M113.04,437.92l4.55,14.16,4.55-14.16h3.4l4.55,14.16,4.55-14.16h5.13l-7.27,21.37h-4.17l-4.49-12.98-4.49,12.98h-4.17l-7.27-21.37h5.13Z"/>
    <path d="M157.7,458.62c-1.89,.96-3.43,1.15-4.71,1.15-3.94,0-6.6-1.35-8.4-3.11-1.92-1.86-3.33-4.68-3.33-8.11s1.41-6.18,3.33-8.04c1.89-1.83,4.65-3.08,7.98-3.08,1.41,0,3.04,.29,5.13,1.19v5.7c-1.09-1.15-2.72-2.28-5-2.28-1.79,0-3.24,.58-4.36,1.67-1.19,1.15-2.02,2.88-2.02,4.93,0,2.21,.9,3.78,1.86,4.71,.45,.45,1.99,1.79,4.61,1.79,1.28,0,3.01-.35,4.9-2.21v5.67Z"/>
    <path d="M175.07,457.47c-1.28,1.28-3.46,2.31-6.25,2.31s-4.97-1.03-6.25-2.31c-1.44-1.44-2.15-3.49-2.15-5.32s.71-3.88,2.15-5.32c1.28-1.28,3.46-2.31,6.25-2.31s4.97,1.03,6.25,2.31c1.44,1.44,2.15,3.49,2.15,5.32s-.71,3.88-2.15,5.32Zm-8.84-8.01c-.67,.67-1.06,1.54-1.06,2.69,0,1.31,.51,2.15,1.06,2.69,.58,.58,1.41,1.03,2.63,1.03,1.03,0,1.89-.35,2.56-1.03s1.06-1.54,1.06-2.69-.38-2.02-1.06-2.69-1.54-1.03-2.6-1.03-1.92,.35-2.6,1.03Z"/>
    <path d="M180.1,445.01h4.61v1.7c1.41-1.79,3.08-2.08,4.42-2.08,1.25,0,2.88,.22,4.1,1.44,1.35,1.35,1.44,3.04,1.44,4.2v9.04h-4.61v-7.34c0-.93-.03-2.12-.77-2.85-.35-.35-.93-.64-1.76-.64-.96,0-1.57,.38-1.92,.77-.77,.77-.9,1.79-.9,2.72v7.34h-4.61v-14.29Z"/>
    <path d="M200.86,445.01l3.62,7.66,3.62-7.66h5.06l-7.24,14.29h-2.88l-7.24-14.29h5.06Z"/>
  </g>
  <g>
    <path d="M228,437.92v17.21h6.63v4.17h-11.57v-21.37h4.93Z"/>
    <path d="M247.83,445.01h4.61v14.29h-4.61v-1.73c-1.25,1.92-3.04,2.21-4.23,2.21-2.05,0-3.78-.51-5.35-2.18-1.51-1.6-2.08-3.46-2.08-5.35,0-2.4,.9-4.45,2.21-5.77s2.98-1.96,4.97-1.96c1.22,0,3.17,.29,4.49,2.08v-1.6Zm-5.86,4.52c-.48,.48-1.06,1.31-1.06,2.6s.54,2.12,.96,2.56c.64,.67,1.63,1.12,2.72,1.12,.93,0,1.79-.38,2.4-.99,.61-.58,1.12-1.47,1.12-2.69,0-1.03-.38-1.99-1.06-2.63-.71-.67-1.73-.99-2.56-.99-.99,0-1.92,.42-2.53,1.03Z"/>
    <path d="M261.16,457.47l-6.83-12.46h5.32l4.04,7.75,3.94-7.75h5.19l-11.5,21.63h-5.19l5.03-9.16Z"/>
    <path d="M289.45,452.95h-10.67c0,.77,.29,1.79,.86,2.44,.71,.77,1.67,.9,2.37,.9s1.38-.13,1.86-.42c.06-.03,.61-.38,.99-1.19l4.36,.45c-.64,2.02-1.92,3.08-2.76,3.59-1.38,.83-2.92,1.06-4.52,1.06-2.15,0-4.04-.38-5.7-2.05-1.25-1.25-2.15-3.14-2.15-5.51,0-2.05,.74-4.17,2.18-5.64,1.73-1.73,3.88-2.05,5.48-2.05s3.91,.29,5.67,2.15c1.7,1.79,2.02,4.04,2.02,5.8v.48Zm-4.26-2.76c-.03-.13-.26-1.03-.93-1.67-.51-.48-1.25-.8-2.18-.8-1.19,0-1.89,.48-2.34,.93-.35,.38-.67,.9-.8,1.54h6.25Z"/>
    <path d="M292.33,445.01h4.61v2.24c.42-.8,1.06-1.54,1.79-1.99,.77-.48,1.57-.61,2.47-.61,.58,0,.99,.06,1.51,.22l-.26,4.33c-.61-.32-1.28-.51-2.08-.51-.99,0-1.73,.35-2.31,.96-1.03,1.09-1.12,2.63-1.12,3.85v5.8h-4.61v-14.29Z"/>
  </g>
  <g>
    <path d="M261.67,372.86v-1.91h-4.66v-1.19l4.06-6.7h1.9v6.78h1.38v1.11h-1.38v1.91h-1.29Zm-3.44-3.02h3.44v-5.63h-.08l-3.36,5.63Z"/>
    <path d="M265.2,372.86l2.62-3.66-2.54-3.61h1.54l1.75,2.58h.04l1.8-2.58h1.43l-2.57,3.54,2.62,3.73h-1.52l-1.87-2.78h-.04l-1.91,2.78h-1.38Z"/>
    <path d="M282.4,367.16c1.26,0,1.9-.65,1.9-1.52v-.1c0-.97-.67-1.47-1.67-1.47s-1.6,.46-2.02,1.21l-.95-.77c.55-.83,1.42-1.61,3-1.61,1.75,0,3.07,.91,3.07,2.5,0,1.26-.84,2.02-1.88,2.27v.06c1.08,.21,2.06,1,2.06,2.44,0,1.7-1.36,2.86-3.4,2.86-1.75,0-2.65-.84-3.27-1.71l1.02-.77c.48,.77,1.07,1.31,2.23,1.31,1.29,0,1.99-.62,1.99-1.7v-.13c0-1.08-.7-1.7-1.99-1.7h-1.14v-1.17h1.04Z"/>
    <path d="M289.28,367.82l-.93-.66,1.38-1.73-2.11-.59,.37-1.07,2.04,.77-.1-2.18h1.14l-.08,2.18,2.04-.77,.35,1.07-2.11,.59,1.38,1.73-.91,.65-1.22-1.83-1.22,1.84Z"/>
    <path d="M297.53,367.16c1.26,0,1.9-.65,1.9-1.52v-.1c0-.97-.67-1.47-1.67-1.47s-1.6,.46-2.02,1.21l-.95-.77c.55-.83,1.42-1.61,3-1.61,1.75,0,3.07,.91,3.07,2.5,0,1.26-.84,2.02-1.88,2.27v.06c1.08,.21,2.06,1,2.06,2.44,0,1.7-1.36,2.86-3.4,2.86-1.75,0-2.65-.84-3.27-1.71l1.02-.77c.48,.77,1.07,1.31,2.23,1.31,1.29,0,1.99-.62,1.99-1.7v-.13c0-1.08-.7-1.7-1.99-1.7h-1.14v-1.17h1.04Z"/>
    <path d="M304.41,367.82l-.93-.66,1.38-1.73-2.11-.59,.37-1.07,2.04,.77-.1-2.18h1.14l-.08,2.18,2.04-.77,.35,1.07-2.11,.59,1.38,1.73-.91,.65-1.22-1.83-1.22,1.84Z"/>
    <path d="M310.2,372.86v-1.21h2.68v-7.36l-2.65,1.56-.52-1.03,3.06-1.77h1.47v8.59h2.46v1.21h-6.5Z"/>
    <path d="M321.68,362.47h1.31v6.47h.07l1.04-1.28,1.9-2.08h1.54l-2.58,2.81,2.92,4.46h-1.57l-2.27-3.62-1.04,1.11v2.51h-1.31v-10.39Z"/>
    <path d="M328.49,369.22c0-2.3,1.28-3.8,3.3-3.8s3.19,1.54,3.19,3.58v.55h-5.12v.29c0,1.21,.74,2.08,2.05,2.08,.91,0,1.57-.44,1.97-1.18l.84,.72c-.51,.94-1.56,1.57-2.92,1.57-2.02,0-3.3-1.5-3.3-3.8Zm1.36-.69v.1h3.73v-.14c0-1.21-.7-2.02-1.8-2.02s-1.94,.87-1.94,2.06Z"/>
    <path d="M336.8,372.86v-7.27h1.31v1.39h.07c.24-.72,.88-1.39,2.05-1.39h.44v1.31h-.65c-1.21,0-1.91,.48-1.91,1.19v4.77h-1.31Z"/>
    <path d="M342.08,372.86v-7.27h1.31v1.19h.07c.34-.8,.95-1.36,2.05-1.36,1.49,0,2.4,1.03,2.4,2.79v4.65h-1.31v-4.45c0-1.22-.51-1.85-1.53-1.85-.86,0-1.68,.43-1.68,1.32v4.98h-1.31Z"/>
    <path d="M349.61,369.22c0-2.3,1.28-3.8,3.3-3.8s3.19,1.54,3.19,3.58v.55h-5.12v.29c0,1.21,.74,2.08,2.05,2.08,.91,0,1.57-.44,1.97-1.18l.84,.72c-.51,.94-1.56,1.57-2.92,1.57-2.02,0-3.3-1.5-3.3-3.8Zm1.36-.69v.1h3.73v-.14c0-1.21-.7-2.02-1.8-2.02s-1.94,.87-1.94,2.06Z"/>
    <path d="M359.28,372.86c-.9,0-1.36-.53-1.36-1.33v-9.05h1.31v9.28h1.04v1.11h-.98Z"/>
    <path d="M361.2,371.62l.88-.76c.55,.69,1.22,1.08,2.11,1.08s1.43-.41,1.43-1.08c0-.53-.28-.91-1.17-1.04l-.62-.1c-1.39-.2-2.36-.77-2.36-2.12,0-1.43,1.11-2.19,2.64-2.19,1.24,0,2.01,.44,2.62,1.17l-.83,.79c-.35-.46-.97-.87-1.84-.87s-1.33,.41-1.33,1.02,.42,.91,1.26,1.04l.62,.1c1.6,.24,2.26,.94,2.26,2.06,0,1.42-1.07,2.3-2.78,2.3-1.35,0-2.23-.55-2.91-1.4Z"/>
  </g>
  <g>
    <path d="M734.86,433.61v-1.48h1.75v-9.62h-1.75v-1.48h5.24v1.48h-1.75v9.62h1.75v1.48h-5.24Z"/>
    <path d="M742.62,433.61v-9.33h1.67v1.53h.09c.43-1.03,1.22-1.75,2.63-1.75,1.91,0,3.08,1.31,3.08,3.58v5.96h-1.67v-5.71c0-1.57-.65-2.38-1.96-2.38-1.1,0-2.16,.56-2.16,1.69v6.39h-1.67Z"/>
    <path d="M757.3,433.61v-1.55h3.44v-9.43l-3.4,2-.67-1.31,3.93-2.27h1.89v11.02h3.15v1.55h-8.34Z"/>
    <path d="M771.56,428.94c0-2.99,1.53-4.88,4.2-4.88,1.84,0,2.99,.9,3.53,2.23l-1.39,.68c-.31-.92-1.06-1.48-2.14-1.48-1.6,0-2.41,1.1-2.41,2.63v1.62c0,1.53,.81,2.63,2.41,2.63,1.13,0,1.91-.58,2.38-1.58l1.22,.76c-.59,1.4-1.82,2.27-3.6,2.27-2.67,0-4.2-1.89-4.2-4.88Z"/>
    <path d="M783.1,433.61c-1.15,0-1.75-.68-1.75-1.71v-11.61h1.67v11.9h1.33v1.42h-1.26Z"/>
    <path d="M785.71,428.94c0-2.97,1.71-4.88,4.25-4.88s4.25,1.91,4.25,4.88-1.71,4.88-4.25,4.88-4.25-1.91-4.25-4.88Zm6.72,.7v-1.4c0-1.82-1.01-2.74-2.47-2.74s-2.47,.92-2.47,2.74v1.4c0,1.82,1.01,2.74,2.47,2.74s2.47-.92,2.47-2.74Z"/>
    <path d="M795.8,428.94c0-2.99,1.53-4.88,4.2-4.88,1.84,0,2.99,.9,3.53,2.23l-1.39,.68c-.31-.92-1.06-1.48-2.14-1.48-1.6,0-2.41,1.1-2.41,2.63v1.62c0,1.53,.81,2.63,2.41,2.63,1.13,0,1.91-.58,2.38-1.58l1.22,.76c-.59,1.4-1.82,2.27-3.6,2.27-2.67,0-4.2-1.89-4.2-4.88Z"/>
    <path d="M805.6,420.28h1.67v8.3h.09l1.33-1.64,2.43-2.67h1.98l-3.31,3.6,3.75,5.73h-2.02l-2.92-4.65-1.33,1.42v3.22h-1.67v-13.32Z"/>
    <path d="M818.86,428.94c0-2.99,1.53-4.88,4.2-4.88,1.84,0,2.99,.9,3.53,2.23l-1.39,.68c-.31-.92-1.06-1.48-2.14-1.48-1.6,0-2.41,1.1-2.41,2.63v1.62c0,1.53,.81,2.63,2.41,2.63,1.13,0,1.91-.58,2.38-1.58l1.22,.76c-.59,1.4-1.82,2.27-3.6,2.27-2.67,0-4.2-1.89-4.2-4.88Z"/>
    <path d="M834.4,424.28h1.62l-4.05,11.36c-.43,1.17-.88,1.57-2.3,1.57h-.92v-1.42h1.53l.63-1.8-3.46-9.71h1.67l2.07,5.96,.49,1.75h.09l.54-1.75,2.09-5.96Z"/>
    <path d="M836.99,428.94c0-2.99,1.53-4.88,4.2-4.88,1.84,0,2.99,.9,3.53,2.23l-1.39,.68c-.31-.92-1.06-1.48-2.14-1.48-1.6,0-2.41,1.1-2.41,2.63v1.62c0,1.53,.81,2.63,2.41,2.63,1.13,0,1.91-.58,2.38-1.58l1.22,.76c-.59,1.4-1.82,2.27-3.6,2.27-2.67,0-4.2-1.89-4.2-4.88Z"/>
    <path d="M848.53,433.61c-1.15,0-1.75-.68-1.75-1.71v-11.61h1.67v11.9h1.33v1.42h-1.26Z"/>
    <path d="M851.14,428.94c0-2.95,1.64-4.88,4.23-4.88s4.09,1.98,4.09,4.59v.7h-6.57v.38c0,1.55,.95,2.67,2.63,2.67,1.17,0,2.02-.56,2.52-1.51l1.08,.92c-.65,1.21-2,2.02-3.74,2.02-2.59,0-4.23-1.93-4.23-4.88Zm1.75-.88v.13h4.79v-.18c0-1.55-.9-2.59-2.3-2.59s-2.49,1.12-2.49,2.65Z"/>
    <path d="M861.77,425.52v-.27c0-.65,.36-1.12,1.19-1.12s1.19,.47,1.19,1.12v.27c0,.65-.36,1.12-1.19,1.12s-1.19-.47-1.19-1.12Zm0,7.18v-.27c0-.65,.36-1.12,1.19-1.12s1.19,.47,1.19,1.12v.27c0,.65-.36,1.12-1.19,1.12s-1.19-.47-1.19-1.12Z"/>
  </g>
  <g>
    <path d="M738.94,452.22v3.85h-1.28v-3.62c-.5,.08-1.46,.23-2.88,.45l-.23-1.35c.91-.11,1.95-.25,3.11-.43v-2.63h-2.7v-1.24c.38-1.03,.82-2.4,1.31-4.1h-1.6v-1.24h1.93c.3-1.26,.49-2.08,.58-2.45l1.24,.16c-.22,.96-.4,1.72-.56,2.29h2.57v1.24h-2.92c-.43,1.48-.86,2.84-1.3,4.1h1.44v-2.75h1.28v2.75h1.26v1.24h-1.26v2.43c.17-.02,.63-.1,1.39-.23l.11,1.24c-.64,.12-1.13,.22-1.49,.29Zm9.14-8.37v1.01h-5.11v-.95c-.68,.58-1.46,1.12-2.32,1.64l-.79-1.13c1.25-.7,2.31-1.46,3.19-2.3,.84-.84,1.54-1.76,2.09-2.75l1.33,.29c-.1,.18-.2,.35-.31,.52,1.33,1.72,3.01,3.03,5.02,3.94l-.72,1.22c-.89-.47-1.68-.96-2.38-1.48Zm-3.91,8.66h-2.09v3.53h-1.17v-9.88h4.43v8.12c0,.53-.12,.93-.36,1.21-.25,.25-.62,.4-1.12,.43-.42,.02-.77,.02-1.06-.02l-.23-1.24c.58,.06,.88,.09,.92,.09,.28-.04,.46-.1,.54-.18,.1-.12,.14-.33,.14-.63v-1.42Zm0-3.67v-1.6h-2.09v1.6h2.09Zm0,2.63v-1.6h-2.09v1.6h2.09Zm3.74-7.74c-.1-.07-.19-.15-.29-.23-.8-.66-1.52-1.43-2.14-2.32-.68,.97-1.45,1.82-2.3,2.56h4.73Zm-1.37,3.1h1.03v6.14h-1.03v-6.14Zm2.32-.79h1.17v7.88c0,.67-.13,1.16-.4,1.46-.25,.28-.71,.45-1.39,.52-.35,.02-.79,.02-1.33-.02l-.29-1.3c.53,.05,.97,.07,1.31,.07s.58-.07,.72-.22c.13-.16,.2-.42,.2-.79v-7.61Z"/>
    <path d="M758.71,447.78c-.97,3.14-2.8,5.72-5.51,7.72l-.86-.98c1.45-1.01,2.64-2.19,3.58-3.54,.96-1.4,1.66-2.98,2.08-4.74-.48-.8-1.19-1.53-2.13-2.19l.86-.71c.71,.47,1.27,.97,1.68,1.5,.43,.55,.84,1.3,1.23,2.26,.71,1.78,1.46,3.21,2.26,4.29,.83,1.14,1.84,2.12,3.03,2.94-.03,.03-.35,.39-.96,1.08-1.15-.93-2.1-1.93-2.87-2.99-.77-1.07-1.49-2.41-2.15-4.03-.08-.2-.16-.4-.25-.6Z"/>
  </g>
  <g>
    <path d="M778.98,451.82l1.76-8.98h1.81l-1.78,8.98h-1.79Zm0,0l1.23-1.63h5.19v1.63h-6.42Zm6.24,2.79v-12.48h1.78v12.48h-1.78Zm1.6-2.79v-1.63h1.35v1.63h-1.35Z"/>
    <path d="M796.4,454.61l-2.83-4.03-3.74-5.29h2.11l2.87,4.18,3.71,5.13h-2.11Zm-6.57,0l3.71-5.13,2.87-4.18h2.11l-3.85,5.29-2.72,4.03h-2.11Z"/>
    <path d="M800.11,451.82l1.76-8.98h1.81l-1.78,8.98h-1.79Zm0,0l1.23-1.63h5.19v1.63h-6.42Zm6.24,2.79v-12.48h1.78v12.48h-1.78Zm1.6-2.79v-1.63h1.35v1.63h-1.35Z"/>
    <path d="M817.53,454.61l-2.83-4.03-3.74-5.29h2.11l2.87,4.18,3.71,5.13h-2.11Zm-6.57,0l3.71-5.13,2.87-4.18h2.11l-3.85,5.29-2.72,4.03h-2.11Z"/>
    <path d="M822.08,454.61v-1.67h3.34v1.67h-3.34Zm.18-9.65v-1.78l2.99-1.05v1.81l-2.99,1.02Zm2.99,9.65v-12.48h1.76v12.48h-1.76Zm1.58,0v-1.67h3.01v1.67h-3.01Z"/>
  </g>
  <g>
    <path d="M840.34,454.61v-1.48h1.75v-9.61h-1.75v-1.48h5.24v1.48h-1.75v9.61h1.75v1.48h-5.24Z"/>
    <path d="M851.71,447.74l-1.73-3.15h-.05v10.03h-1.69v-12.57h1.95l4.12,6.88,1.73,3.15h.05v-10.03h1.69v12.57h-1.94l-4.12-6.88Z"/>
    <path d="M865.41,443.59v11.02h-1.75v-11.02h-3.89v-1.55h9.51v1.55h-3.87Z"/>
    <path d="M870.68,451.19c0-1.69,1.01-2.68,2.52-3.1v-.14c-1.3-.45-2.14-1.49-2.14-2.93,0-1.91,1.48-3.19,4.03-3.19s4.03,1.28,4.03,3.19c0,1.44-.85,2.48-2.14,2.93v.14c1.51,.41,2.52,1.4,2.52,3.1,0,2.07-1.53,3.64-4.41,3.64s-4.41-1.57-4.41-3.64Zm6.99,.05v-.38c0-1.33-.94-2.12-2.58-2.12s-2.57,.79-2.57,2.12v.38c0,1.33,.94,2.12,2.57,2.12s2.58-.79,2.58-2.12Zm-.29-5.8v-.27c0-1.22-.81-1.89-2.29-1.89s-2.29,.67-2.29,1.89v.27c0,1.22,.81,1.89,2.29,1.89s2.29-.67,2.29-1.89Z"/>
  </g>
  <g>
    <path d="M738.94,473.82v3.85h-1.28v-3.62c-.5,.08-1.46,.23-2.88,.45l-.23-1.35c.91-.11,1.95-.25,3.11-.43v-2.63h-2.7v-1.24c.38-1.03,.82-2.4,1.31-4.1h-1.6v-1.24h1.93c.3-1.26,.49-2.08,.58-2.45l1.24,.16c-.22,.96-.4,1.72-.56,2.29h2.57v1.24h-2.92c-.43,1.48-.86,2.84-1.3,4.1h1.44v-2.75h1.28v2.75h1.26v1.24h-1.26v2.43c.17-.02,.63-.1,1.39-.23l.11,1.24c-.64,.12-1.13,.22-1.49,.29Zm9.14-8.37v1.01h-5.11v-.95c-.68,.58-1.46,1.12-2.32,1.64l-.79-1.13c1.25-.7,2.31-1.46,3.19-2.3,.84-.84,1.54-1.76,2.09-2.75l1.33,.29c-.1,.18-.2,.35-.31,.52,1.33,1.72,3.01,3.03,5.02,3.94l-.72,1.22c-.89-.47-1.68-.96-2.38-1.48Zm-3.91,8.66h-2.09v3.53h-1.17v-9.88h4.43v8.12c0,.53-.12,.93-.36,1.21-.25,.25-.62,.4-1.12,.43-.42,.02-.77,.02-1.06-.02l-.23-1.24c.58,.06,.88,.09,.92,.09,.28-.04,.46-.1,.54-.18,.1-.12,.14-.33,.14-.63v-1.42Zm0-3.67v-1.6h-2.09v1.6h2.09Zm0,2.63v-1.6h-2.09v1.6h2.09Zm3.74-7.74c-.1-.07-.19-.15-.29-.23-.8-.66-1.52-1.43-2.14-2.32-.68,.97-1.45,1.82-2.3,2.56h4.73Zm-1.37,3.1h1.03v6.14h-1.03v-6.14Zm2.32-.79h1.17v7.88c0,.67-.13,1.16-.4,1.46-.25,.28-.71,.45-1.39,.52-.35,.02-.79,.02-1.33-.02l-.29-1.3c.53,.05,.97,.07,1.31,.07s.58-.07,.72-.22c.13-.16,.2-.42,.2-.79v-7.61Z"/>
    <path d="M762.79,476.64h-9.4v-4.61h1.13v3.54h3.54v-4.88h-4.25v-4.65h1.13v3.58h3.12v-4.85h1.16v4.85h3.14v-3.58h1.13v4.65h-4.28v4.88h3.57v-3.53h1.13v5.18h-1.13v-.59Z"/>
  </g>
  <g>
    <path d="M779.66,476.21v-1.97c1.93-1.07,3.37-2.18,4.32-3.34,.95-1.16,1.43-2.36,1.43-3.59,0-.71-.18-1.25-.53-1.61s-.88-.54-1.6-.54c-.47,0-.97,.14-1.49,.41s-.96,.64-1.33,1.1l-1.21-1.2c.4-.58,.98-1.05,1.72-1.4s1.52-.53,2.34-.53c1.32,0,2.3,.31,2.96,.94,.65,.62,.98,1.57,.98,2.83s-.4,2.48-1.2,3.64c-.8,1.16-2.02,2.28-3.65,3.35v1.9h-2.74Zm.53,0v-1.63h7.59v1.63h-7.59Z"/>
    <path d="M796.4,476.21l-2.83-4.03-3.74-5.29h2.11l2.87,4.18,3.71,5.13h-2.11Zm-6.57,0l3.71-5.13,2.87-4.18h2.11l-3.85,5.29-2.72,4.03h-2.11Z"/>
    <path d="M800.79,476.21v-1.97c1.93-1.07,3.37-2.18,4.32-3.34,.95-1.16,1.43-2.36,1.43-3.59,0-.71-.18-1.25-.53-1.61s-.88-.54-1.6-.54c-.47,0-.97,.14-1.49,.41s-.96,.64-1.33,1.1l-1.21-1.2c.4-.58,.98-1.05,1.72-1.4s1.52-.53,2.34-.53c1.32,0,2.3,.31,2.96,.94,.65,.62,.98,1.57,.98,2.83s-.4,2.48-1.2,3.64c-.8,1.16-2.02,2.28-3.65,3.35v1.9h-2.74Zm.53,0v-1.63h7.59v1.63h-7.59Z"/>
    <path d="M817.53,476.21l-2.83-4.03-3.74-5.29h2.11l2.87,4.18,3.71,5.13h-2.11Zm-6.57,0l3.71-5.13,2.87-4.18h2.11l-3.85,5.29-2.72,4.03h-2.11Z"/>
    <path d="M822.08,476.21v-1.67h3.34v1.67h-3.34Zm.18-9.65v-1.78l2.99-1.05v1.81l-2.99,1.02Zm2.99,9.65v-12.48h1.76v12.48h-1.76Zm1.58,0v-1.67h3.01v1.67h-3.01Z"/>
  </g>
  <g>
    <path d="M840.34,476.21v-1.48h1.75v-9.61h-1.75v-1.48h5.24v1.48h-1.75v9.61h1.75v1.48h-5.24Z"/>
    <path d="M851.71,469.34l-1.73-3.15h-.05v10.03h-1.69v-12.57h1.95l4.12,6.88,1.73,3.15h.05v-10.03h1.69v12.57h-1.94l-4.12-6.88Z"/>
    <path d="M865.41,465.19v11.02h-1.75v-11.02h-3.89v-1.55h9.51v1.55h-3.87Z"/>
    <path d="M870.68,472.79c0-1.69,1.01-2.68,2.52-3.1v-.14c-1.3-.45-2.14-1.49-2.14-2.93,0-1.91,1.48-3.19,4.03-3.19s4.03,1.28,4.03,3.19c0,1.44-.85,2.48-2.14,2.93v.14c1.51,.41,2.52,1.4,2.52,3.1,0,2.07-1.53,3.64-4.41,3.64s-4.41-1.57-4.41-3.64Zm6.99,.05v-.38c0-1.33-.94-2.12-2.58-2.12s-2.57,.79-2.57,2.12v.38c0,1.33,.94,2.12,2.57,2.12s2.58-.79,2.58-2.12Zm-.29-5.8v-.27c0-1.22-.81-1.89-2.29-1.89s-2.29,.67-2.29,1.89v.27c0,1.22,.81,1.89,2.29,1.89s2.29-.67,2.29-1.89Z"/>
  </g>
  <g class="cls-11">
    <path class="cls-17" d="M818.7,269.7h76.08c6.69,0,12.12,5.43,12.12,12.12v48.48c0,6.69-5.43,12.12-12.12,12.12h-76.08c-6.69,0-12.12-5.43-12.12-12.12v-48.48c0-6.69,5.43-12.12,12.12-12.12Z"/>
    <path class="cls-3" d="M818.7,269.7h76.08c6.69,0,12.12,5.43,12.12,12.12v48.48c0,6.69-5.43,12.12-12.12,12.12h-76.08c-6.69,0-12.12-5.43-12.12-12.12v-48.48c0-6.69,5.43-12.12,12.12-12.12Z"/>
  </g>
  <g>
    <path d="M829.22,295.16c0-4.23,2.11-6.5,5.37-6.5s5.37,2.27,5.37,6.5-2.11,6.5-5.37,6.5-5.37-2.27-5.37-6.5Zm8.86,1.03v-2.05c0-2.39-1.4-3.91-3.49-3.91s-3.49,1.51-3.49,3.91v2.05c0,2.39,1.4,3.91,3.49,3.91s3.49-1.51,3.49-3.91Z"/>
    <path d="M848.14,299.91h-.09c-.34,.9-1.06,1.75-2.61,1.75-1.91,0-3.1-1.31-3.1-3.58v-5.96h1.67v5.71c0,1.57,.67,2.38,1.98,2.38,1.06,0,2.14-.54,2.14-1.71v-6.37h1.67v9.33h-1.67v-1.53Z"/>
    <path d="M855.05,301.44c-1.15,0-1.76-.68-1.76-1.76v-6.14h-1.5v-1.42h.83c.63,0,.83-.23,.83-.86v-1.71h1.51v2.57h2v1.42h-2v6.48h1.85v1.42h-1.76Z"/>
    <path d="M859.23,292.11h1.67v1.53h.07c.43-1.15,1.4-1.75,2.68-1.75,2.34,0,3.75,1.85,3.75,4.88s-1.41,4.88-3.75,4.88c-1.28,0-2.25-.59-2.68-1.75h-.07v5.13h-1.67v-12.93Zm6.39,5.46v-1.58c0-1.57-.95-2.63-2.45-2.63-1.26,0-2.27,.72-2.27,1.71v3.42c0,.99,1.01,1.71,2.27,1.71,1.49,0,2.45-1.06,2.45-2.63Z"/>
    <path d="M875.49,299.91h-.09c-.34,.9-1.06,1.75-2.61,1.75-1.91,0-3.1-1.31-3.1-3.58v-5.96h1.67v5.71c0,1.57,.67,2.38,1.98,2.38,1.06,0,2.14-.54,2.14-1.71v-6.37h1.67v9.33h-1.67v-1.53Z"/>
    <path d="M882.4,301.44c-1.15,0-1.76-.68-1.76-1.76v-6.14h-1.5v-1.42h.83c.63,0,.83-.23,.83-.86v-1.71h1.51v2.57h2v1.42h-2v6.48h1.85v1.42h-1.76Z"/>
  </g>
  <g>
    <path d="M827.66,316.76c0-4.2,1.96-6.5,5.17-6.5,2.12,0,3.58,.99,4.39,2.79l-1.44,.83c-.47-1.24-1.44-2.05-2.95-2.05-2.05,0-3.29,1.53-3.29,3.98v1.91c0,2.45,1.24,3.98,3.29,3.98,1.55,0,2.59-.88,3.06-2.18l1.41,.85c-.81,1.8-2.34,2.9-4.47,2.9-3.21,0-5.17-2.3-5.17-6.5Z"/>
    <path d="M838.75,318.38c0-2.97,1.71-4.88,4.25-4.88s4.25,1.91,4.25,4.88-1.71,4.88-4.25,4.88-4.25-1.91-4.25-4.88Zm6.72,.7v-1.4c0-1.82-1.01-2.74-2.47-2.74s-2.47,.92-2.47,2.74v1.4c0,1.82,1.01,2.74,2.47,2.74s2.47-.92,2.47-2.74Z"/>
    <path d="M849.51,323.04v-9.33h1.67v1.53h.09c.43-1.03,1.22-1.75,2.63-1.75,1.91,0,3.08,1.31,3.08,3.58v5.96h-1.67v-5.71c0-1.57-.65-2.38-1.96-2.38-1.1,0-2.16,.56-2.16,1.69v6.39h-1.67Z"/>
    <path d="M862.11,323.04c-1.15,0-1.76-.68-1.76-1.76v-6.14h-1.5v-1.42h.83c.63,0,.83-.23,.83-.86v-1.71h1.51v2.57h2v1.42h-2v6.48h1.85v1.42h-1.76Z"/>
    <path d="M866.3,323.04v-9.33h1.67v1.78h.09c.31-.92,1.13-1.78,2.63-1.78h.56v1.67h-.83c-1.55,0-2.45,.61-2.45,1.53v6.12h-1.67Z"/>
    <path d="M872.25,318.38c0-2.97,1.71-4.88,4.25-4.88s4.25,1.91,4.25,4.88-1.71,4.88-4.25,4.88-4.25-1.91-4.25-4.88Zm6.72,.7v-1.4c0-1.82-1.01-2.74-2.47-2.74s-2.47,.92-2.47,2.74v1.4c0,1.82,1.01,2.74,2.47,2.74s2.47-.92,2.47-2.74Z"/>
    <path d="M884.75,323.04c-1.15,0-1.75-.68-1.75-1.71v-11.61h1.67v11.9h1.33v1.42h-1.26Z"/>
  </g>
</svg>