<?xml version="1.0" encoding="UTF-8"?>
<svg id="_层_1" data-name="图层 1" xmlns="http://www.w3.org/2000/svg" xmlns:xlink="http://www.w3.org/1999/xlink" viewBox="0 0 960.06 540">
  <defs>
    <style>
      .cls-1, .cls-2, .cls-3, .cls-4, .cls-5, .cls-6, .cls-7, .cls-8, .cls-9 {
        fill: none;
      }

      .cls-1, .cls-2, .cls-3, .cls-4, .cls-5, .cls-7, .cls-8, .cls-9 {
        stroke-miterlimit: 8;
      }

      .cls-1, .cls-4, .cls-5, .cls-7, .cls-8 {
        stroke-width: 1.5px;
      }

      .cls-1, .cls-9 {
        stroke: #000;
      }

      .cls-10 {
        fill: #fff;
      }

      .cls-2 {
        stroke: #d0cece;
        stroke-width: 3px;
      }

      .cls-11 {
        clip-path: url(#clippath-2);
      }

      .cls-12 {
        fill: #e2f0d9;
      }

      .cls-13 {
        clip-path: url(#clippath-6);
      }

      .cls-3 {
        stroke: #2f528f;
      }

      .cls-14 {
        clip-path: url(#clippath-7);
      }

      .cls-4 {
        stroke: #843c0c;
      }

      .cls-15 {
        fill: #4472c4;
      }

      .cls-15, .cls-16 {
        fill-rule: evenodd;
      }

      .cls-17 {
        clip-path: url(#clippath-1);
      }

      .cls-18 {
        clip-path: url(#clippath-4);
      }

      .cls-5 {
        stroke: #7f6000;
      }

      .cls-19 {
        clip-path: url(#clippath-9);
      }

      .cls-20 {
        clip-path: url(#clippath);
      }

      .cls-21 {
        fill: #fff2cc;
      }

      .cls-22 {
        clip-path: url(#clippath-3);
      }

      .cls-23 {
        clip-path: url(#clippath-8);
      }

      .cls-7 {
        stroke: #203864;
      }

      .cls-8 {
        stroke: #385723;
      }

      .cls-24 {
        clip-path: url(#clippath-5);
      }

      .cls-25 {
        fill: #fbe5d6;
      }

      .cls-26 {
        fill: #dae3f3;
      }

      .cls-27 {
        fill: #ededed;
      }
    </style>
    <clipPath id="clippath">
      <rect class="cls-6" width="960" height="540"/>
    </clipPath>
    <clipPath id="clippath-1">
      <rect class="cls-6" width="960" height="540"/>
    </clipPath>
    <clipPath id="clippath-2">
      <rect class="cls-6" width="960" height="540"/>
    </clipPath>
    <clipPath id="clippath-3">
      <rect class="cls-6" width="960" height="540"/>
    </clipPath>
    <clipPath id="clippath-4">
      <rect class="cls-6" width="960" height="540"/>
    </clipPath>
    <clipPath id="clippath-5">
      <rect class="cls-6" width="960" height="540"/>
    </clipPath>
    <clipPath id="clippath-6">
      <rect class="cls-6" width="960" height="540"/>
    </clipPath>
    <clipPath id="clippath-7">
      <rect class="cls-6" width="960" height="540"/>
    </clipPath>
    <clipPath id="clippath-8">
      <rect class="cls-6" width="960" height="540"/>
    </clipPath>
    <clipPath id="clippath-9">
      <rect class="cls-6" width="960" height="540"/>
    </clipPath>
  </defs>
  <rect class="cls-10" width="960" height="540"/>
  <line class="cls-2" x1="806.7" y1="102.66" x2="806.7" y2="306.08"/>
  <line class="cls-2" x1="521.1" y1="102.66" x2="521.1" y2="306.08"/>
  <line class="cls-2" x1="369.3" y1="102.66" x2="369.3" y2="306.08"/>
  <g class="cls-20">
    <line class="cls-2" x1=".06" y1="306.06" x2="960.06" y2="306.06"/>
  </g>
  <rect class="cls-27" x="31.26" y="264.78" width="79.56" height="79.68"/>
  <rect class="cls-1" x="31.26" y="264.78" width="79.56" height="79.68"/>
  <g>
    <path d="M56.92,303.57h-1.75v-12.57h5.19c2.21,0,3.56,1.39,3.56,3.69,0,1.82-.85,3.06-2.47,3.48l2.79,5.4h-1.96l-2.61-5.22h-2.75v5.22Zm3.37-6.73c1.12,0,1.78-.61,1.78-1.69v-.9c0-1.08-.67-1.69-1.78-1.69h-3.37v4.29h3.37Z"/>
    <path d="M66.82,303.57v-12.57h7.83v1.55h-6.09v3.66h5.64v1.55h-5.64v4.27h6.09v1.55h-7.83Z"/>
    <path d="M85.51,301.69h-.07c-.27,1.19-1.53,2.09-3.44,2.09-3.04,0-5.2-2.27-5.2-6.48s2.16-6.52,5.42-6.52c2.23,0,3.78,1.1,4.63,2.79l-1.44,.85c-.54-1.26-1.64-2.07-3.19-2.07-2.12,0-3.55,1.5-3.55,3.91v2.04c0,2.41,1.4,3.92,3.66,3.92,1.67,0,3.06-.85,3.06-2.57v-1.13h-2.68v-1.51h4.38v6.57h-1.57v-1.87Z"/>
  </g>
  <g>
    <path d="M60.34,319.53h-5.57v-1.15l2.7-2.46c.82-.73,1.36-1.5,1.36-2.29v-.14c0-.86-.53-1.43-1.46-1.43-.98,0-1.44,.59-1.66,1.36l-1.03-.4c.34-1.02,1.12-2,2.76-2s2.64,1.02,2.64,2.45c0,1.33-.83,2.23-1.93,3.19l-2.08,1.85h4.27v1.03Z"/>
    <path d="M61.35,319.53l2.24-3.13-2.17-3.08h1.32l1.5,2.21h.04l1.54-2.21h1.22l-2.19,3.02,2.24,3.19h-1.3l-1.59-2.38h-.04l-1.63,2.38h-1.18Z"/>
    <path d="M73.78,319.53h-5.56v-1.15l2.7-2.46c.82-.73,1.36-1.5,1.36-2.29v-.14c0-.86-.53-1.43-1.46-1.43-.98,0-1.44,.59-1.66,1.36l-1.03-.4c.34-1.02,1.12-2,2.76-2s2.64,1.02,2.64,2.45c0,1.33-.83,2.23-1.93,3.19l-2.08,1.85h4.27v1.03Z"/>
    <path d="M74.79,319.53l2.24-3.13-2.17-3.08h1.32l1.5,2.21h.04l1.54-2.21h1.22l-2.19,3.02,2.24,3.19h-1.3l-1.59-2.38h-.04l-1.63,2.38h-1.18Z"/>
    <path d="M81.83,319.53v-1.03h2.29v-6.29l-2.27,1.33-.44-.88,2.61-1.51h1.26v7.34h2.1v1.03h-5.55Z"/>
  </g>
  <g class="cls-17">
    <rect class="cls-25" x="157.14" y="269.7" width="100.2" height="72.72" rx="12.12" ry="12.12"/>
    <rect class="cls-4" x="157.14" y="269.7" width="100.2" height="72.72" rx="12.12" ry="12.12"/>
  </g>
  <g>
    <path d="M183.69,302.1h-.09l-1.03,2.05-2.88,5.28-2.88-5.28-1.03-2.07h-.09v10.16h-1.69v-12.57h2.16l3.49,6.61h.07l3.49-6.61h2.16v12.57h-1.69v-10.14Z"/>
    <path d="M195.29,312.24c-1.03,0-1.51-.65-1.64-1.55h-.09c-.38,1.15-1.37,1.76-2.7,1.76-1.94,0-3.08-1.08-3.08-2.79,0-1.8,1.31-2.77,3.98-2.77h1.76v-.85c0-1.24-.67-1.95-2.07-1.95-1.1,0-1.8,.54-2.29,1.33l-1.01-.92c.56-1.01,1.66-1.82,3.39-1.82,2.32,0,3.65,1.19,3.65,3.21v4.92h1.04v1.42h-.95Zm-1.76-2.74v-1.44h-1.78c-1.53,0-2.21,.47-2.21,1.33v.36c0,.86,.67,1.35,1.71,1.35,1.31,0,2.29-.67,2.29-1.6Z"/>
    <path d="M197.12,312.24l3.37-4.7-3.26-4.63h1.98l2.25,3.31h.05l2.3-3.31h1.84l-3.29,4.54,3.37,4.79h-1.94l-2.39-3.57h-.05l-2.45,3.57h-1.76Z"/>
    <path d="M207.59,302.91h1.67v1.53h.07c.43-1.15,1.4-1.75,2.68-1.75,2.34,0,3.75,1.85,3.75,4.88s-1.4,4.88-3.75,4.88c-1.28,0-2.25-.59-2.68-1.75h-.07v5.13h-1.67v-12.93Zm6.39,5.46v-1.58c0-1.57-.95-2.63-2.45-2.63-1.26,0-2.27,.72-2.27,1.71v3.42c0,.99,1.01,1.71,2.27,1.71,1.49,0,2.45-1.06,2.45-2.63Z"/>
    <path d="M217.48,307.58c0-2.97,1.71-4.88,4.25-4.88s4.25,1.91,4.25,4.88-1.71,4.88-4.25,4.88-4.25-1.91-4.25-4.88Zm6.72,.7v-1.4c0-1.82-1.01-2.74-2.47-2.74s-2.47,.92-2.47,2.74v1.4c0,1.82,1.01,2.74,2.47,2.74s2.47-.92,2.47-2.74Z"/>
    <path d="M227.57,307.58c0-2.97,1.71-4.88,4.25-4.88s4.25,1.91,4.25,4.88-1.71,4.88-4.25,4.88-4.25-1.91-4.25-4.88Zm6.72,.7v-1.4c0-1.82-1.01-2.74-2.47-2.74s-2.47,.92-2.47,2.74v1.4c0,1.82,1.01,2.74,2.47,2.74s2.47-.92,2.47-2.74Z"/>
    <path d="M240.08,312.24c-1.15,0-1.75-.68-1.75-1.71v-11.61h1.67v11.9h1.33v1.42h-1.26Z"/>
  </g>
  <g class="cls-11">
    <rect class="cls-12" x="312.42" y="263.7" width="266.88" height="85.08" rx="14.18" ry="14.18"/>
    <rect class="cls-8" x="312.42" y="263.7" width="266.88" height="85.08" rx="14.18" ry="14.18"/>
  </g>
  <g>
    <path d="M397.42,301.63v-12.57h5.19c2.27,0,3.56,1.46,3.56,3.69s-1.3,3.69-3.56,3.69h-3.44v5.19h-1.75Zm1.75-6.73h3.37c1.12,0,1.78-.61,1.78-1.69v-.9c0-1.08-.67-1.69-1.78-1.69h-3.37v4.29Z"/>
    <path d="M407.3,296.97c0-2.97,1.71-4.88,4.25-4.88s4.25,1.91,4.25,4.88-1.71,4.88-4.25,4.88-4.25-1.91-4.25-4.88Zm6.72,.7v-1.4c0-1.82-1.01-2.74-2.47-2.74s-2.47,.92-2.47,2.74v1.4c0,1.82,1.01,2.74,2.47,2.74s2.47-.92,2.47-2.74Z"/>
    <path d="M417.19,300.05l1.13-.97c.7,.88,1.57,1.39,2.7,1.39s1.84-.52,1.84-1.39c0-.68-.36-1.17-1.49-1.33l-.79-.13c-1.78-.25-3.02-.99-3.02-2.72,0-1.84,1.42-2.81,3.39-2.81,1.58,0,2.57,.56,3.37,1.49l-1.06,1.01c-.45-.59-1.24-1.12-2.36-1.12s-1.71,.52-1.71,1.31,.54,1.17,1.62,1.33l.79,.13c2.05,.31,2.9,1.21,2.9,2.65,0,1.82-1.37,2.95-3.56,2.95-1.73,0-2.86-.7-3.73-1.8Z"/>
    <path d="M428.99,301.63c-1.15,0-1.76-.68-1.76-1.76v-6.14h-1.49v-1.42h.83c.63,0,.83-.23,.83-.86v-1.71h1.51v2.57h2v1.42h-2v6.48h1.85v1.42h-1.76Z"/>
    <path d="M433.33,301.63v-12.57h5.19c2.27,0,3.56,1.46,3.56,3.69s-1.3,3.69-3.56,3.69h-3.44v5.19h-1.75Zm1.75-6.73h3.37c1.12,0,1.78-.61,1.78-1.69v-.9c0-1.08-.67-1.69-1.78-1.69h-3.37v4.29Z"/>
    <path d="M444.11,301.63v-9.33h1.67v1.78h.09c.31-.92,1.13-1.78,2.63-1.78h.56v1.67h-.83c-1.55,0-2.45,.61-2.45,1.53v6.12h-1.67Z"/>
    <path d="M450.05,296.97c0-2.97,1.71-4.88,4.25-4.88s4.25,1.91,4.25,4.88-1.71,4.88-4.25,4.88-4.25-1.91-4.25-4.88Zm6.72,.7v-1.4c0-1.82-1.01-2.74-2.47-2.74s-2.47,.92-2.47,2.74v1.4c0,1.82,1.01,2.74,2.47,2.74s2.47-.92,2.47-2.74Z"/>
    <path d="M460.13,296.97c0-2.99,1.53-4.88,4.2-4.88,1.84,0,2.99,.9,3.53,2.23l-1.39,.68c-.31-.92-1.06-1.48-2.14-1.48-1.6,0-2.41,1.1-2.41,2.63v1.62c0,1.53,.81,2.63,2.41,2.63,1.13,0,1.91-.58,2.38-1.58l1.22,.76c-.59,1.4-1.82,2.27-3.6,2.27-2.66,0-4.2-1.89-4.2-4.88Z"/>
    <path d="M469.15,296.97c0-2.95,1.64-4.88,4.23-4.88s4.09,1.98,4.09,4.59v.7h-6.57v.38c0,1.55,.95,2.67,2.63,2.67,1.17,0,2.02-.56,2.52-1.51l1.08,.92c-.65,1.21-2,2.02-3.75,2.02-2.59,0-4.23-1.93-4.23-4.88Zm1.75-.88v.13h4.79v-.18c0-1.55-.9-2.59-2.3-2.59s-2.48,1.12-2.48,2.65Z"/>
    <path d="M478.91,300.05l1.13-.97c.7,.88,1.57,1.39,2.7,1.39s1.84-.52,1.84-1.39c0-.68-.36-1.17-1.5-1.33l-.79-.13c-1.78-.25-3.02-.99-3.02-2.72,0-1.84,1.42-2.81,3.39-2.81,1.58,0,2.57,.56,3.37,1.49l-1.06,1.01c-.45-.59-1.24-1.12-2.36-1.12s-1.71,.52-1.71,1.31,.54,1.17,1.62,1.33l.79,.13c2.05,.31,2.9,1.21,2.9,2.65,0,1.82-1.37,2.95-3.57,2.95-1.73,0-2.86-.7-3.73-1.8Z"/>
    <path d="M487.56,300.05l1.13-.97c.7,.88,1.57,1.39,2.7,1.39s1.84-.52,1.84-1.39c0-.68-.36-1.17-1.5-1.33l-.79-.13c-1.78-.25-3.02-.99-3.02-2.72,0-1.84,1.42-2.81,3.38-2.81,1.58,0,2.57,.56,3.37,1.49l-1.06,1.01c-.45-.59-1.24-1.12-2.36-1.12s-1.71,.52-1.71,1.31,.54,1.17,1.62,1.33l.79,.13c2.05,.31,2.9,1.21,2.9,2.65,0,1.82-1.37,2.95-3.57,2.95-1.73,0-2.86-.7-3.73-1.8Z"/>
  </g>
  <g>
    <path d="M422.03,323.23v-12.57h1.75v11.02h5.24v1.55h-6.99Z"/>
    <path d="M430.85,311.04v-.25c0-.54,.31-.92,1.01-.92s1.01,.38,1.01,.92v.25c0,.54-.31,.92-1.01,.92s-1.01-.38-1.01-.92Zm.16,2.86h1.67v9.33h-1.67v-9.33Z"/>
    <path d="M435.69,323.23v-9.33h1.67v1.53h.09c.43-1.03,1.22-1.75,2.63-1.75,1.91,0,3.08,1.31,3.08,3.58v5.96h-1.67v-5.71c0-1.57-.65-2.38-1.96-2.38-1.1,0-2.16,.56-2.16,1.69v6.39h-1.67Z"/>
    <path d="M445.34,318.57c0-2.95,1.64-4.88,4.23-4.88s4.09,1.98,4.09,4.59v.7h-6.57v.38c0,1.55,.95,2.67,2.63,2.67,1.17,0,2.02-.56,2.52-1.51l1.08,.92c-.65,1.21-2,2.02-3.75,2.02-2.59,0-4.23-1.93-4.23-4.88Zm1.75-.88v.13h4.79v-.18c0-1.55-.9-2.59-2.3-2.59s-2.48,1.12-2.48,2.65Z"/>
    <path d="M462.74,323.23c-1.03,0-1.51-.65-1.64-1.55h-.09c-.38,1.15-1.37,1.76-2.7,1.76-1.94,0-3.08-1.08-3.08-2.79,0-1.8,1.31-2.77,3.98-2.77h1.76v-.85c0-1.24-.67-1.94-2.07-1.94-1.1,0-1.8,.54-2.29,1.33l-1.01-.92c.56-1.01,1.66-1.82,3.39-1.82,2.32,0,3.65,1.19,3.65,3.21v4.92h1.04v1.42h-.95Zm-1.76-2.74v-1.44h-1.78c-1.53,0-2.21,.47-2.21,1.33v.36c0,.86,.67,1.35,1.71,1.35,1.31,0,2.29-.67,2.29-1.6Z"/>
    <path d="M465.69,323.23v-9.33h1.67v1.78h.09c.31-.92,1.13-1.78,2.63-1.78h.56v1.67h-.83c-1.55,0-2.45,.61-2.45,1.53v6.12h-1.67Z"/>
  </g>
  <line class="cls-9" x1="138.77" y1="294" x2="129.48" y2="318"/>
  <g class="cls-22">
    <rect class="cls-25" x="319.14" y="146.58" width="100.2" height="72.72" rx="12.12" ry="12.12"/>
    <rect class="cls-4" x="319.14" y="146.58" width="100.2" height="72.72" rx="12.12" ry="12.12"/>
  </g>
  <g>
    <path d="M344.03,178.34l-3.01-12.57h1.8l1.33,6.05,.97,4.47h.04l1.1-4.47,1.55-6.05h1.96l1.51,6.05,1.1,4.45h.05l.99-4.45,1.39-6.05h1.75l-3.17,12.57h-1.94l-1.64-6.37-1.04-4.25h-.04l-1.08,4.25-1.66,6.37h-1.96Z"/>
    <path d="M357.4,173.68c0-2.95,1.64-4.88,4.23-4.88s4.09,1.98,4.09,4.59v.7h-6.57v.38c0,1.55,.95,2.66,2.63,2.66,1.17,0,2.02-.56,2.52-1.51l1.08,.92c-.65,1.21-2,2.02-3.75,2.02-2.59,0-4.23-1.93-4.23-4.88Zm1.75-.88v.13h4.79v-.18c0-1.55-.9-2.59-2.3-2.59s-2.48,1.12-2.48,2.65Z"/>
    <path d="M367.86,166.15v-.25c0-.54,.31-.92,1.01-.92s1.01,.38,1.01,.92v.25c0,.54-.31,.92-1.01,.92s-1.01-.38-1.01-.92Zm.16,2.86h1.67v9.33h-1.67v-9.33Z"/>
    <path d="M376.09,182.16c-2.97,0-4.16-.83-4.16-2.27,0-1.01,.58-1.57,1.53-1.8v-.2c-.59-.23-.92-.7-.92-1.37,0-.94,.7-1.4,1.62-1.62v-.07c-1.1-.52-1.73-1.55-1.73-2.83,0-1.89,1.37-3.21,3.6-3.21,.65,0,1.22,.13,1.73,.32v-.2c0-.77,.34-1.28,1.13-1.28h1.42v1.4h-1.84v.5c.76,.56,1.17,1.42,1.17,2.45,0,1.89-1.37,3.19-3.62,3.19-.36,0-.74-.04-1.04-.11-.54,.16-1.06,.47-1.06,.99s.52,.7,1.37,.7h2.12c2.3,0,3.29,.95,3.29,2.52,0,1.93-1.48,2.86-4.63,2.86Zm1.22-3.85h-3.13c-.52,.27-.76,.67-.76,1.19,0,.77,.56,1.39,2.02,1.39h1.26c1.58,0,2.45-.47,2.45-1.42,0-.7-.47-1.15-1.84-1.15Zm.67-6.07v-.47c0-1.13-.74-1.69-1.93-1.69s-1.93,.56-1.93,1.69v.47c0,1.13,.74,1.69,1.93,1.69s1.93-.56,1.93-1.69Z"/>
    <path d="M382.3,165.02h1.67v5.53h.09c.43-1.03,1.22-1.75,2.63-1.75,1.91,0,3.08,1.31,3.08,3.58v5.96h-1.67v-5.71c0-1.57-.65-2.38-1.96-2.38-1.1,0-2.16,.56-2.16,1.69v6.39h-1.67v-13.32Z"/>
    <path d="M394.9,178.34c-1.15,0-1.76-.68-1.76-1.76v-6.14h-1.49v-1.42h.83c.63,0,.83-.23,.83-.86v-1.71h1.51v2.57h2v1.42h-2v6.48h1.85v1.42h-1.76Z"/>
  </g>
  <g>
    <path d="M335.97,198l1.24-1.12c.88,1.13,1.93,1.75,3.33,1.75,1.71,0,2.63-.88,2.63-2.21,0-1.1-.59-1.67-2.16-2.02l-1.06-.22c-2.36-.49-3.6-1.55-3.6-3.51,0-2.23,1.69-3.51,4.27-3.51,1.89,0,3.24,.7,4.2,2l-1.28,1.03c-.67-.92-1.58-1.49-3.01-1.49-1.53,0-2.45,.67-2.45,1.91,0,1.12,.7,1.62,2.2,1.94l1.06,.22c2.47,.54,3.56,1.64,3.56,3.56,0,2.32-1.64,3.83-4.43,3.83-2.05,0-3.49-.83-4.5-2.16Z"/>
    <path d="M346.6,195.28c0-2.95,1.64-4.88,4.23-4.88s4.09,1.98,4.09,4.59v.7h-6.57v.38c0,1.55,.95,2.66,2.63,2.66,1.17,0,2.02-.56,2.52-1.51l1.08,.92c-.65,1.21-2,2.02-3.75,2.02-2.59,0-4.23-1.93-4.23-4.88Zm1.75-.88v.13h4.79v-.18c0-1.55-.9-2.59-2.3-2.59s-2.48,1.12-2.48,2.65Z"/>
    <path d="M358.97,199.94c-1.15,0-1.75-.68-1.75-1.71v-11.61h1.67v11.9h1.33v1.42h-1.26Z"/>
    <path d="M361.6,195.28c0-2.95,1.64-4.88,4.23-4.88s4.09,1.98,4.09,4.59v.7h-6.57v.38c0,1.55,.95,2.66,2.63,2.66,1.17,0,2.02-.56,2.52-1.51l1.08,.92c-.65,1.21-2,2.02-3.75,2.02-2.59,0-4.23-1.93-4.23-4.88Zm1.75-.88v.13h4.79v-.18c0-1.55-.9-2.59-2.3-2.59s-2.48,1.12-2.48,2.65Z"/>
    <path d="M371.55,195.28c0-2.99,1.53-4.88,4.2-4.88,1.84,0,2.99,.9,3.53,2.23l-1.39,.68c-.31-.92-1.06-1.48-2.14-1.48-1.6,0-2.41,1.1-2.41,2.63v1.62c0,1.53,.81,2.63,2.41,2.63,1.13,0,1.91-.58,2.38-1.58l1.22,.76c-.59,1.4-1.82,2.27-3.6,2.27-2.66,0-4.2-1.89-4.2-4.88Z"/>
    <path d="M383.61,199.94c-1.15,0-1.76-.68-1.76-1.76v-6.14h-1.49v-1.42h.83c.63,0,.83-.23,.83-.86v-1.71h1.51v2.57h2v1.42h-2v6.48h1.85v1.42h-1.76Z"/>
    <path d="M387.03,195.28c0-2.97,1.71-4.88,4.25-4.88s4.25,1.91,4.25,4.88-1.71,4.88-4.25,4.88-4.25-1.91-4.25-4.88Zm6.72,.7v-1.4c0-1.82-1.01-2.74-2.47-2.74s-2.47,.92-2.47,2.74v1.4c0,1.82,1.01,2.74,2.47,2.74s2.47-.92,2.47-2.74Z"/>
    <path d="M397.78,199.94v-9.33h1.67v1.78h.09c.31-.92,1.13-1.78,2.63-1.78h.56v1.67h-.83c-1.55,0-2.45,.61-2.45,1.53v6.12h-1.67Z"/>
  </g>
  <rect class="cls-27" x="257.34" y="49.14" width="616.8" height="53.52"/>
  <rect class="cls-1" x="257.34" y="49.14" width="616.8" height="53.52"/>
  <g>
    <path d="M542.13,80.12l1.24-1.12c.88,1.13,1.93,1.75,3.33,1.75,1.71,0,2.63-.88,2.63-2.21,0-1.1-.59-1.67-2.16-2.02l-1.06-.22c-2.36-.49-3.6-1.55-3.6-3.51,0-2.23,1.69-3.51,4.27-3.51,1.89,0,3.24,.7,4.2,2l-1.28,1.03c-.67-.92-1.58-1.49-3.01-1.49-1.53,0-2.45,.67-2.45,1.91,0,1.12,.7,1.62,2.2,1.94l1.06,.22c2.47,.54,3.57,1.64,3.57,3.56,0,2.32-1.64,3.83-4.43,3.83-2.05,0-3.49-.83-4.5-2.16Z"/>
    <path d="M555.33,82.06h-1.75v-12.57h5.19c2.21,0,3.57,1.39,3.57,3.69,0,1.82-.85,3.06-2.47,3.48l2.79,5.4h-1.96l-2.61-5.22h-2.75v5.22Zm3.37-6.73c1.12,0,1.78-.61,1.78-1.69v-.9c0-1.08-.67-1.69-1.78-1.69h-3.37v4.29h3.37Z"/>
    <path d="M573.06,82.06l-1.19-3.55h-4.9l-1.21,3.55h-1.76l4.36-12.57h2.2l4.34,12.57h-1.84Zm-3.6-10.97h-.09l-1.98,5.87h4.05l-1.98-5.87Z"/>
    <path d="M586.58,71.93h-.09l-1.03,2.05-2.88,5.28-2.88-5.28-1.03-2.07h-.09v10.16h-1.69v-12.57h2.16l3.49,6.61h.07l3.49-6.61h2.16v12.57h-1.69v-10.14Z"/>
  </g>
  <g class="cls-18">
    <path class="cls-12" d="M634.06,272.46h70.48c6.18,0,11.2,5.02,11.2,11.2v44.8c0,6.18-5.02,11.2-11.2,11.2h-70.48c-6.18,0-11.2-5.02-11.2-11.2v-44.8c0-6.18,5.02-11.2,11.2-11.2Z"/>
    <path class="cls-8" d="M634.06,272.46h70.48c6.18,0,11.2,5.02,11.2,11.2v44.8c0,6.18-5.02,11.2-11.2,11.2h-70.48c-6.18,0-11.2-5.02-11.2-11.2v-44.8c0-6.18,5.02-11.2,11.2-11.2Z"/>
  </g>
  <g>
    <path d="M640.56,312.24h-1.75v-12.57h5.19c2.21,0,3.57,1.39,3.57,3.69,0,1.82-.85,3.06-2.47,3.48l2.79,5.4h-1.96l-2.61-5.22h-2.75v5.22Zm3.37-6.73c1.12,0,1.78-.61,1.78-1.69v-.9c0-1.08-.67-1.69-1.78-1.69h-3.37v4.29h3.37Z"/>
    <path d="M649.42,307.58c0-2.95,1.64-4.88,4.23-4.88s4.09,1.98,4.09,4.59v.7h-6.57v.38c0,1.55,.95,2.67,2.63,2.67,1.17,0,2.02-.56,2.52-1.51l1.08,.92c-.65,1.21-2,2.02-3.75,2.02-2.59,0-4.23-1.93-4.23-4.88Zm1.75-.88v.13h4.79v-.18c0-1.55-.9-2.59-2.3-2.59s-2.48,1.12-2.48,2.65Z"/>
    <path d="M659.17,310.66l1.13-.97c.7,.88,1.57,1.39,2.7,1.39s1.84-.52,1.84-1.39c0-.68-.36-1.17-1.5-1.33l-.79-.13c-1.78-.25-3.02-.99-3.02-2.72,0-1.84,1.42-2.81,3.38-2.81,1.58,0,2.57,.56,3.37,1.49l-1.06,1.01c-.45-.59-1.24-1.12-2.36-1.12s-1.71,.52-1.71,1.31,.54,1.17,1.62,1.33l.79,.13c2.05,.31,2.9,1.21,2.9,2.65,0,1.82-1.37,2.95-3.57,2.95-1.73,0-2.86-.7-3.73-1.8Z"/>
    <path d="M668.14,307.58c0-2.99,1.53-4.88,4.2-4.88,1.84,0,2.99,.9,3.53,2.23l-1.39,.68c-.31-.92-1.06-1.48-2.14-1.48-1.6,0-2.41,1.1-2.41,2.63v1.62c0,1.53,.81,2.63,2.41,2.63,1.13,0,1.91-.58,2.38-1.58l1.22,.76c-.59,1.4-1.82,2.27-3.6,2.27-2.67,0-4.2-1.89-4.2-4.88Z"/>
    <path d="M684.72,312.24c-1.03,0-1.51-.65-1.64-1.55h-.09c-.38,1.15-1.37,1.76-2.7,1.76-1.94,0-3.08-1.08-3.08-2.79,0-1.8,1.31-2.77,3.98-2.77h1.76v-.85c0-1.24-.67-1.95-2.07-1.95-1.1,0-1.8,.54-2.29,1.33l-1.01-.92c.56-1.01,1.66-1.82,3.38-1.82,2.32,0,3.66,1.19,3.66,3.21v4.92h1.04v1.42h-.95Zm-1.76-2.74v-1.44h-1.78c-1.53,0-2.21,.47-2.21,1.33v.36c0,.86,.67,1.35,1.71,1.35,1.31,0,2.29-.67,2.29-1.6Z"/>
    <path d="M689.42,312.24c-1.15,0-1.75-.68-1.75-1.71v-11.61h1.67v11.9h1.33v1.42h-1.26Z"/>
    <path d="M692.02,307.58c0-2.95,1.64-4.88,4.23-4.88s4.09,1.98,4.09,4.59v.7h-6.57v.38c0,1.55,.95,2.67,2.63,2.67,1.17,0,2.02-.56,2.52-1.51l1.08,.92c-.65,1.21-2,2.02-3.74,2.02-2.59,0-4.23-1.93-4.23-4.88Zm1.75-.88v.13h4.79v-.18c0-1.55-.9-2.59-2.3-2.59s-2.49,1.12-2.49,2.65Z"/>
  </g>
  <g class="cls-24">
    <rect class="cls-25" x="475.62" y="146.58" width="90.96" height="72.72" rx="12.12" ry="12.12"/>
    <rect class="cls-4" x="475.62" y="146.58" width="90.96" height="72.72" rx="12.12" ry="12.12"/>
  </g>
  <g>
    <path d="M505.18,165.78h5.35c2.07,0,3.37,1.28,3.37,3.24s-1.21,2.56-2.12,2.66v.11c.95,.05,2.56,.83,2.56,2.94s-1.4,3.62-3.26,3.62h-5.89v-12.57Zm1.75,5.38h3.33c1.1,0,1.76-.59,1.76-1.64v-.59c0-1.04-.67-1.64-1.76-1.64h-3.33v3.87Zm0,5.67h3.62c1.19,0,1.91-.61,1.91-1.78v-.63c0-1.17-.72-1.78-1.91-1.78h-3.62v4.2Z"/>
    <path d="M516.75,166.15v-.25c0-.54,.31-.92,1.01-.92s1.01,.38,1.01,.92v.25c0,.54-.31,.92-1.01,.92s-1.01-.38-1.01-.92Zm.16,2.86h1.67v9.33h-1.67v-9.33Z"/>
    <path d="M528.38,178.34c-1.03,0-1.51-.65-1.64-1.55h-.09c-.38,1.15-1.37,1.76-2.7,1.76-1.94,0-3.08-1.08-3.08-2.79,0-1.8,1.31-2.77,3.98-2.77h1.76v-.85c0-1.24-.67-1.94-2.07-1.94-1.1,0-1.8,.54-2.29,1.33l-1.01-.92c.56-1.01,1.66-1.82,3.38-1.82,2.32,0,3.66,1.19,3.66,3.21v4.92h1.04v1.42h-.95Zm-1.76-2.74v-1.44h-1.78c-1.53,0-2.21,.47-2.21,1.33v.36c0,.86,.67,1.35,1.71,1.35,1.31,0,2.29-.67,2.29-1.6Z"/>
    <path d="M530.47,176.76l1.13-.97c.7,.88,1.57,1.39,2.7,1.39s1.84-.52,1.84-1.39c0-.68-.36-1.17-1.5-1.33l-.79-.13c-1.78-.25-3.02-.99-3.02-2.72,0-1.84,1.42-2.81,3.38-2.81,1.58,0,2.57,.56,3.37,1.49l-1.06,1.01c-.45-.59-1.24-1.12-2.36-1.12s-1.71,.52-1.71,1.31,.54,1.17,1.62,1.33l.79,.13c2.05,.31,2.9,1.21,2.9,2.65,0,1.82-1.37,2.95-3.57,2.95-1.73,0-2.86-.7-3.73-1.8Z"/>
  </g>
  <g>
    <path d="M487.86,198l1.24-1.12c.88,1.13,1.93,1.75,3.33,1.75,1.71,0,2.63-.88,2.63-2.21,0-1.1-.59-1.67-2.16-2.02l-1.06-.22c-2.36-.49-3.6-1.55-3.6-3.51,0-2.23,1.69-3.51,4.27-3.51,1.89,0,3.24,.7,4.2,2l-1.28,1.03c-.67-.92-1.58-1.49-3.01-1.49-1.53,0-2.45,.67-2.45,1.91,0,1.12,.7,1.62,2.2,1.94l1.06,.22c2.47,.54,3.57,1.64,3.57,3.56,0,2.32-1.64,3.83-4.43,3.83-2.05,0-3.49-.83-4.5-2.16Z"/>
    <path d="M498.5,195.28c0-2.95,1.64-4.88,4.23-4.88s4.09,1.98,4.09,4.59v.7h-6.57v.38c0,1.55,.95,2.66,2.63,2.66,1.17,0,2.02-.56,2.52-1.51l1.08,.92c-.65,1.21-2,2.02-3.75,2.02-2.59,0-4.23-1.93-4.23-4.88Zm1.75-.88v.13h4.79v-.18c0-1.55-.9-2.59-2.3-2.59s-2.48,1.12-2.48,2.65Z"/>
    <path d="M510.87,199.94c-1.15,0-1.75-.68-1.75-1.71v-11.61h1.67v11.9h1.33v1.42h-1.26Z"/>
    <path d="M513.5,195.28c0-2.95,1.64-4.88,4.23-4.88s4.09,1.98,4.09,4.59v.7h-6.57v.38c0,1.55,.95,2.66,2.63,2.66,1.17,0,2.02-.56,2.52-1.51l1.08,.92c-.65,1.21-2,2.02-3.74,2.02-2.59,0-4.23-1.93-4.23-4.88Zm1.75-.88v.13h4.79v-.18c0-1.55-.9-2.59-2.3-2.59s-2.49,1.12-2.49,2.65Z"/>
    <path d="M523.45,195.28c0-2.99,1.53-4.88,4.2-4.88,1.84,0,2.99,.9,3.53,2.23l-1.39,.68c-.31-.92-1.06-1.48-2.14-1.48-1.6,0-2.41,1.1-2.41,2.63v1.62c0,1.53,.81,2.63,2.41,2.63,1.13,0,1.91-.58,2.38-1.58l1.22,.76c-.59,1.4-1.82,2.27-3.6,2.27-2.67,0-4.2-1.89-4.2-4.88Z"/>
    <path d="M535.51,199.94c-1.15,0-1.76-.68-1.76-1.76v-6.14h-1.5v-1.42h.83c.63,0,.83-.23,.83-.86v-1.71h1.51v2.57h2v1.42h-2v6.48h1.85v1.42h-1.76Z"/>
    <path d="M538.93,195.28c0-2.97,1.71-4.88,4.25-4.88s4.25,1.91,4.25,4.88-1.71,4.88-4.25,4.88-4.25-1.91-4.25-4.88Zm6.72,.7v-1.4c0-1.82-1.01-2.74-2.47-2.74s-2.47,.92-2.47,2.74v1.4c0,1.82,1.01,2.74,2.47,2.74s2.47-.92,2.47-2.74Z"/>
    <path d="M549.69,199.94v-9.33h1.67v1.78h.09c.31-.92,1.13-1.78,2.63-1.78h.56v1.67h-.83c-1.55,0-2.45,.61-2.45,1.53v6.12h-1.67Z"/>
  </g>
  <line class="cls-9" x1="289.25" y1="294" x2="279.96" y2="318"/>
  <g>
    <path d="M68.39,451.25c1.86,0,3.91,.26,5.61,1.76,1.83,1.6,2.08,3.72,2.08,5.19,0,2.69-1.03,4.2-1.83,5.03-1.7,1.73-3.94,1.89-5.45,1.89h-3.01v7.5h-4.93v-21.37h7.53Zm-2.6,9.84h1.76c.67,0,1.86-.03,2.66-.8,.45-.45,.8-1.19,.8-2.11s-.32-1.63-.8-2.08c-.74-.71-1.79-.8-2.76-.8h-1.67v5.8Z"/>
    <path d="M92.61,470.8c-1.28,1.28-3.46,2.31-6.25,2.31s-4.97-1.03-6.25-2.31c-1.44-1.44-2.15-3.49-2.15-5.32s.71-3.88,2.15-5.32c1.28-1.28,3.46-2.31,6.25-2.31s4.97,1.03,6.25,2.31c1.44,1.44,2.15,3.49,2.15,5.32s-.71,3.88-2.15,5.32Zm-8.84-8.01c-.67,.67-1.06,1.54-1.06,2.69,0,1.31,.51,2.15,1.06,2.69,.58,.58,1.41,1.03,2.63,1.03,1.03,0,1.89-.35,2.56-1.03s1.06-1.54,1.06-2.69-.38-2.02-1.06-2.69c-.67-.67-1.54-1.03-2.6-1.03s-1.92,.35-2.6,1.03Z"/>
    <path d="M106.39,461.99c-.71-.42-1.63-.8-2.53-.8-.48,0-1.03,.13-1.31,.42-.16,.16-.29,.42-.29,.64,0,.32,.22,.51,.45,.64,.32,.19,.8,.29,1.38,.48l1.22,.38c.8,.26,1.63,.58,2.37,1.25,.83,.77,1.12,1.63,1.12,2.72,0,1.89-.83,3.11-1.47,3.75-1.41,1.41-3.14,1.63-4.65,1.63-1.92,0-4.01-.42-5.86-2.05l1.95-3.11c.45,.38,1.09,.83,1.57,1.06,.64,.32,1.31,.45,1.92,.45,.29,0,1.03,0,1.44-.32,.29-.22,.48-.58,.48-.93,0-.26-.1-.58-.51-.83-.32-.19-.74-.32-1.41-.51l-1.15-.35c-.83-.26-1.7-.71-2.31-1.31-.67-.7-1.03-1.51-1.03-2.59,0-1.38,.54-2.53,1.38-3.3,1.28-1.19,3.01-1.44,4.33-1.44,2.11,0,3.59,.54,4.74,1.22l-1.83,2.92Z"/>
    <path d="M116.29,462.05v10.57h-4.61v-10.57h-1.6v-3.72h1.6v-4.61h4.61v4.61h2.85v3.72h-2.85Z"/>
    <path d="M129.23,451.25c1.86,0,3.91,.26,5.61,1.76,1.83,1.6,2.08,3.72,2.08,5.19,0,2.69-1.03,4.2-1.83,5.03-1.7,1.73-3.94,1.89-5.45,1.89h-3.01v7.5h-4.93v-21.37h7.53Zm-2.6,9.84h1.76c.67,0,1.86-.03,2.66-.8,.45-.45,.8-1.19,.8-2.11s-.32-1.63-.8-2.08c-.74-.71-1.79-.8-2.76-.8h-1.67v5.8Z"/>
    <path d="M139.52,458.33h4.61v2.24c.42-.8,1.06-1.54,1.79-1.99,.77-.48,1.57-.61,2.47-.61,.58,0,.99,.06,1.51,.22l-.26,4.33c-.61-.32-1.28-.51-2.08-.51-.99,0-1.73,.35-2.31,.96-1.03,1.09-1.12,2.63-1.12,3.85v5.8h-4.61v-14.29Z"/>
    <path d="M165.34,470.8c-1.28,1.28-3.46,2.31-6.25,2.31s-4.97-1.03-6.25-2.31c-1.44-1.44-2.15-3.49-2.15-5.32s.71-3.88,2.15-5.32c1.28-1.28,3.46-2.31,6.25-2.31s4.97,1.03,6.25,2.31c1.44,1.44,2.15,3.49,2.15,5.32s-.71,3.88-2.15,5.32Zm-8.84-8.01c-.67,.67-1.06,1.54-1.06,2.69,0,1.31,.51,2.15,1.06,2.69,.58,.58,1.41,1.03,2.63,1.03,1.03,0,1.89-.35,2.56-1.03s1.06-1.54,1.06-2.69-.38-2.02-1.06-2.69c-.67-.67-1.54-1.03-2.6-1.03s-1.92,.35-2.6,1.03Z"/>
    <path d="M181.11,462.85c-1.12-.93-2.27-1.09-3.01-1.09-1.44,0-2.31,.7-2.63,1.03-.61,.61-1.06,1.54-1.06,2.69,0,1.06,.38,1.95,.96,2.56,.7,.77,1.76,1.15,2.79,1.15,.8,0,1.89-.22,2.95-1.12v4.17c-1.22,.67-2.37,.87-3.65,.87-2.4,0-4.23-.87-5.54-2.15-1.09-1.06-2.24-2.85-2.24-5.45,0-2.44,1.03-4.36,2.37-5.64,1.6-1.51,3.49-2.02,5.45-2.02,1.25,0,2.4,.22,3.62,.8v4.2Z"/>
    <path d="M198.82,466.28h-10.67c0,.77,.29,1.79,.87,2.44,.71,.77,1.67,.9,2.37,.9s1.38-.13,1.86-.42c.06-.03,.61-.38,.99-1.19l4.36,.45c-.64,2.02-1.92,3.08-2.76,3.59-1.38,.83-2.92,1.06-4.52,1.06-2.15,0-4.04-.38-5.7-2.05-1.25-1.25-2.15-3.14-2.15-5.51,0-2.05,.74-4.17,2.18-5.64,1.73-1.73,3.88-2.05,5.48-2.05s3.91,.29,5.67,2.15c1.7,1.79,2.02,4.04,2.02,5.8v.48Zm-4.26-2.76c-.03-.13-.26-1.03-.93-1.67-.51-.48-1.25-.8-2.18-.8-1.19,0-1.89,.48-2.34,.93-.35,.38-.67,.9-.8,1.54h6.25Z"/>
    <path d="M210.45,461.99c-.71-.42-1.63-.8-2.53-.8-.48,0-1.03,.13-1.31,.42-.16,.16-.29,.42-.29,.64,0,.32,.22,.51,.45,.64,.32,.19,.8,.29,1.38,.48l1.22,.38c.8,.26,1.63,.58,2.37,1.25,.83,.77,1.12,1.63,1.12,2.72,0,1.89-.83,3.11-1.47,3.75-1.41,1.41-3.14,1.63-4.65,1.63-1.92,0-4.01-.42-5.86-2.05l1.95-3.11c.45,.38,1.09,.83,1.57,1.06,.64,.32,1.31,.45,1.92,.45,.29,0,1.03,0,1.44-.32,.29-.22,.48-.58,.48-.93,0-.26-.1-.58-.51-.83-.32-.19-.74-.32-1.41-.51l-1.15-.35c-.83-.26-1.7-.71-2.31-1.31-.67-.7-1.03-1.51-1.03-2.59,0-1.38,.54-2.53,1.38-3.3,1.28-1.19,3.01-1.44,4.33-1.44,2.11,0,3.59,.54,4.74,1.22l-1.83,2.92Z"/>
    <path d="M224.36,461.99c-.71-.42-1.63-.8-2.53-.8-.48,0-1.03,.13-1.31,.42-.16,.16-.29,.42-.29,.64,0,.32,.22,.51,.45,.64,.32,.19,.8,.29,1.38,.48l1.22,.38c.8,.26,1.63,.58,2.37,1.25,.83,.77,1.12,1.63,1.12,2.72,0,1.89-.83,3.11-1.47,3.75-1.41,1.41-3.14,1.63-4.65,1.63-1.92,0-4.01-.42-5.86-2.05l1.95-3.11c.45,.38,1.09,.83,1.57,1.06,.64,.32,1.31,.45,1.92,.45,.29,0,1.03,0,1.44-.32,.29-.22,.48-.58,.48-.93,0-.26-.1-.58-.51-.83-.32-.19-.74-.32-1.41-.51l-1.15-.35c-.83-.26-1.7-.71-2.31-1.31-.67-.7-1.03-1.51-1.03-2.59,0-1.38,.54-2.53,1.38-3.3,1.28-1.19,3.01-1.44,4.33-1.44,2.11,0,3.59,.54,4.74,1.22l-1.83,2.92Z"/>
  </g>
  <g>
    <path d="M242.3,451.25v17.21h6.63v4.17h-11.57v-21.37h4.93Z"/>
    <path d="M262.14,458.33h4.61v14.29h-4.61v-1.73c-1.25,1.92-3.04,2.21-4.23,2.21-2.05,0-3.78-.51-5.35-2.18-1.51-1.6-2.08-3.46-2.08-5.35,0-2.4,.9-4.45,2.21-5.77s2.98-1.96,4.97-1.96c1.22,0,3.17,.29,4.49,2.08v-1.6Zm-5.86,4.52c-.48,.48-1.06,1.31-1.06,2.6s.54,2.12,.96,2.56c.64,.67,1.63,1.12,2.72,1.12,.93,0,1.79-.38,2.4-.99,.61-.58,1.12-1.47,1.12-2.69,0-1.03-.38-1.99-1.06-2.63-.71-.67-1.73-.99-2.56-.99-.99,0-1.92,.42-2.53,1.03Z"/>
    <path d="M275.46,470.8l-6.83-12.46h5.32l4.04,7.75,3.94-7.75h5.19l-11.5,21.63h-5.19l5.03-9.16Z"/>
    <path d="M303.76,466.28h-10.67c0,.77,.29,1.79,.86,2.44,.71,.77,1.67,.9,2.37,.9s1.38-.13,1.86-.42c.06-.03,.61-.38,.99-1.19l4.36,.45c-.64,2.02-1.92,3.08-2.76,3.59-1.38,.83-2.92,1.06-4.52,1.06-2.15,0-4.04-.38-5.7-2.05-1.25-1.25-2.15-3.14-2.15-5.51,0-2.05,.74-4.17,2.18-5.64,1.73-1.73,3.88-2.05,5.48-2.05s3.91,.29,5.67,2.15c1.7,1.79,2.02,4.04,2.02,5.8v.48Zm-4.26-2.76c-.03-.13-.26-1.03-.93-1.67-.51-.48-1.25-.8-2.18-.8-1.19,0-1.89,.48-2.34,.93-.35,.38-.67,.9-.8,1.54h6.25Z"/>
    <path d="M306.64,458.33h4.61v2.24c.42-.8,1.06-1.54,1.79-1.99,.77-.48,1.57-.61,2.47-.61,.58,0,.99,.06,1.51,.22l-.26,4.33c-.61-.32-1.28-.51-2.08-.51-.99,0-1.73,.35-2.31,.96-1.03,1.09-1.12,2.63-1.12,3.85v5.8h-4.61v-14.29Z"/>
  </g>
  <g>
    <path d="M263.53,368.46v-1.21h2.68v-7.36l-2.65,1.56-.52-1.02,3.06-1.77h1.47v8.59h2.46v1.21h-6.5Z"/>
    <path d="M275.13,361.19h1.31v1.19h.06c.34-.9,1.1-1.36,2.09-1.36,1.82,0,2.92,1.45,2.92,3.8s-1.1,3.8-2.92,3.8c-1,0-1.75-.46-2.09-1.36h-.06v4h-1.31v-10.08Zm4.98,4.25v-1.24c0-1.22-.74-2.05-1.91-2.05-.98,0-1.77,.56-1.77,1.33v2.67c0,.77,.79,1.33,1.77,1.33,1.17,0,1.91-.83,1.91-2.05Z"/>
    <path d="M282.78,364.82c0-2.32,1.33-3.8,3.31-3.8s3.31,1.49,3.31,3.8-1.33,3.8-3.31,3.8-3.31-1.49-3.31-3.8Zm5.24,.55v-1.1c0-1.42-.79-2.13-1.92-2.13s-1.92,.72-1.92,2.13v1.1c0,1.42,.79,2.13,1.92,2.13s1.92-.72,1.92-2.13Z"/>
    <path d="M291.09,358.95v-.2c0-.42,.24-.72,.79-.72s.79,.29,.79,.72v.2c0,.42-.24,.72-.79,.72s-.79-.29-.79-.72Zm.13,2.23h1.31v7.27h-1.31v-7.27Z"/>
    <path d="M294.83,368.46v-7.27h1.31v1.19h.07c.34-.8,.95-1.36,2.05-1.36,1.49,0,2.4,1.03,2.4,2.79v4.65h-1.31v-4.45c0-1.22-.51-1.85-1.53-1.85-.86,0-1.68,.43-1.68,1.32v4.98h-1.31Z"/>
    <path d="M304.66,368.46c-.9,0-1.38-.53-1.38-1.38v-4.79h-1.17v-1.11h.65c.49,0,.65-.18,.65-.67v-1.33h1.18v2.01h1.56v1.11h-1.56v5.05h1.45v1.11h-1.38Z"/>
  </g>
  <g>
    <path d="M726.46,431.29v-1.48h1.75v-9.62h-1.75v-1.48h5.24v1.48h-1.75v9.62h1.75v1.48h-5.24Z"/>
    <path d="M734.21,431.29v-9.33h1.67v1.53h.09c.43-1.03,1.22-1.75,2.63-1.75,1.91,0,3.08,1.31,3.08,3.58v5.96h-1.67v-5.71c0-1.57-.65-2.38-1.96-2.38-1.1,0-2.16,.56-2.16,1.69v6.39h-1.67Z"/>
    <path d="M748.9,431.29v-1.55h3.44v-9.43l-3.4,2-.67-1.31,3.93-2.27h1.89v11.02h3.15v1.55h-8.34Z"/>
    <path d="M763.16,426.63c0-2.99,1.53-4.88,4.2-4.88,1.84,0,2.99,.9,3.53,2.23l-1.39,.68c-.31-.92-1.06-1.48-2.14-1.48-1.6,0-2.41,1.1-2.41,2.63v1.62c0,1.53,.81,2.63,2.41,2.63,1.13,0,1.91-.58,2.38-1.58l1.22,.76c-.59,1.4-1.82,2.27-3.6,2.27-2.67,0-4.2-1.89-4.2-4.88Z"/>
    <path d="M774.7,431.29c-1.15,0-1.75-.68-1.75-1.71v-11.61h1.67v11.9h1.33v1.42h-1.26Z"/>
    <path d="M777.31,426.63c0-2.97,1.71-4.88,4.25-4.88s4.25,1.91,4.25,4.88-1.71,4.88-4.25,4.88-4.25-1.91-4.25-4.88Zm6.72,.7v-1.4c0-1.82-1.01-2.74-2.47-2.74s-2.47,.92-2.47,2.74v1.4c0,1.82,1.01,2.74,2.47,2.74s2.47-.92,2.47-2.74Z"/>
    <path d="M787.4,426.63c0-2.99,1.53-4.88,4.2-4.88,1.84,0,2.99,.9,3.53,2.23l-1.39,.68c-.31-.92-1.06-1.48-2.14-1.48-1.6,0-2.41,1.1-2.41,2.63v1.62c0,1.53,.81,2.63,2.41,2.63,1.13,0,1.91-.58,2.38-1.58l1.22,.76c-.59,1.4-1.82,2.27-3.6,2.27-2.67,0-4.2-1.89-4.2-4.88Z"/>
    <path d="M797.2,417.97h1.67v8.3h.09l1.33-1.64,2.43-2.67h1.98l-3.31,3.6,3.75,5.73h-2.02l-2.92-4.65-1.33,1.42v3.22h-1.67v-13.32Z"/>
    <path d="M810.46,426.63c0-2.99,1.53-4.88,4.2-4.88,1.84,0,2.99,.9,3.53,2.23l-1.39,.68c-.31-.92-1.06-1.48-2.14-1.48-1.6,0-2.41,1.1-2.41,2.63v1.62c0,1.53,.81,2.63,2.41,2.63,1.13,0,1.91-.58,2.38-1.58l1.22,.76c-.59,1.4-1.82,2.27-3.6,2.27-2.67,0-4.2-1.89-4.2-4.88Z"/>
    <path d="M826,421.96h1.62l-4.05,11.36c-.43,1.17-.88,1.57-2.3,1.57h-.92v-1.42h1.53l.63-1.8-3.46-9.71h1.67l2.07,5.96,.49,1.75h.09l.54-1.75,2.09-5.96Z"/>
    <path d="M828.59,426.63c0-2.99,1.53-4.88,4.2-4.88,1.84,0,2.99,.9,3.53,2.23l-1.39,.68c-.31-.92-1.06-1.48-2.14-1.48-1.6,0-2.41,1.1-2.41,2.63v1.62c0,1.53,.81,2.63,2.41,2.63,1.13,0,1.91-.58,2.38-1.58l1.22,.76c-.59,1.4-1.82,2.27-3.6,2.27-2.67,0-4.2-1.89-4.2-4.88Z"/>
    <path d="M840.12,431.29c-1.15,0-1.75-.68-1.75-1.71v-11.61h1.67v11.9h1.33v1.42h-1.26Z"/>
    <path d="M842.74,426.63c0-2.95,1.64-4.88,4.23-4.88s4.09,1.98,4.09,4.59v.7h-6.57v.38c0,1.55,.95,2.67,2.63,2.67,1.17,0,2.02-.56,2.52-1.51l1.08,.92c-.65,1.21-2,2.02-3.74,2.02-2.59,0-4.23-1.93-4.23-4.88Zm1.75-.88v.13h4.79v-.18c0-1.55-.9-2.59-2.3-2.59s-2.49,1.12-2.49,2.65Z"/>
    <path d="M853.37,423.21v-.27c0-.65,.36-1.12,1.19-1.12s1.19,.47,1.19,1.12v.27c0,.65-.36,1.12-1.19,1.12s-1.19-.47-1.19-1.12Zm0,7.18v-.27c0-.65,.36-1.12,1.19-1.12s1.19,.47,1.19,1.12v.27c0,.65-.36,1.12-1.19,1.12s-1.19-.47-1.19-1.12Z"/>
  </g>
  <g>
    <path d="M730.54,449.9v3.85h-1.28v-3.62c-.5,.08-1.46,.23-2.88,.45l-.23-1.35c.91-.11,1.95-.25,3.11-.43v-2.63h-2.7v-1.24c.38-1.03,.82-2.4,1.31-4.1h-1.6v-1.24h1.93c.3-1.26,.49-2.08,.58-2.45l1.24,.16c-.22,.96-.4,1.72-.56,2.29h2.57v1.24h-2.92c-.43,1.48-.86,2.84-1.3,4.1h1.44v-2.75h1.28v2.75h1.26v1.24h-1.26v2.43c.17-.02,.63-.1,1.39-.23l.11,1.24c-.64,.12-1.13,.22-1.49,.29Zm9.14-8.37v1.01h-5.11v-.95c-.68,.58-1.46,1.12-2.32,1.64l-.79-1.13c1.25-.7,2.31-1.46,3.19-2.3,.84-.84,1.54-1.76,2.09-2.75l1.33,.29c-.1,.18-.2,.35-.31,.52,1.33,1.72,3.01,3.03,5.02,3.94l-.72,1.22c-.89-.47-1.68-.96-2.38-1.48Zm-3.91,8.66h-2.09v3.53h-1.17v-9.88h4.43v8.12c0,.53-.12,.93-.36,1.21-.25,.25-.62,.4-1.12,.43-.42,.02-.77,.02-1.06-.02l-.23-1.24c.58,.06,.88,.09,.92,.09,.28-.04,.46-.1,.54-.18,.1-.12,.14-.33,.14-.63v-1.42Zm0-3.67v-1.6h-2.09v1.6h2.09Zm0,2.63v-1.6h-2.09v1.6h2.09Zm3.74-7.74c-.1-.07-.19-.15-.29-.23-.8-.66-1.52-1.43-2.14-2.32-.68,.97-1.45,1.82-2.3,2.56h4.73Zm-1.37,3.1h1.03v6.14h-1.03v-6.14Zm2.32-.79h1.17v7.88c0,.67-.13,1.16-.4,1.46-.25,.28-.71,.45-1.39,.52-.35,.02-.79,.02-1.33-.02l-.29-1.3c.53,.05,.97,.07,1.31,.07s.58-.07,.72-.22c.13-.16,.2-.42,.2-.79v-7.61Z"/>
    <path d="M750.31,445.46c-.97,3.14-2.8,5.72-5.51,7.72l-.86-.98c1.45-1.01,2.64-2.19,3.58-3.54,.96-1.4,1.66-2.98,2.08-4.74-.48-.8-1.19-1.53-2.13-2.19l.86-.71c.71,.47,1.27,.97,1.68,1.5,.43,.55,.84,1.3,1.23,2.26,.71,1.78,1.46,3.21,2.26,4.29,.83,1.14,1.84,2.12,3.03,2.94-.03,.03-.35,.39-.96,1.08-1.15-.93-2.1-1.93-2.87-2.99-.77-1.07-1.49-2.41-2.15-4.03-.08-.2-.16-.4-.25-.6Z"/>
  </g>
  <g>
    <path d="M783.75,452.3v-1.97c1.93-1.07,3.37-2.18,4.32-3.34,.95-1.16,1.43-2.36,1.43-3.59,0-.71-.18-1.25-.53-1.61s-.88-.54-1.6-.54c-.47,0-.97,.14-1.49,.41s-.96,.64-1.33,1.1l-1.21-1.2c.4-.58,.98-1.05,1.72-1.4s1.52-.53,2.34-.53c1.32,0,2.3,.31,2.96,.94,.65,.62,.98,1.57,.98,2.83s-.4,2.48-1.2,3.64c-.8,1.16-2.02,2.28-3.65,3.35v1.9h-2.74Zm.53,0v-1.63h7.59v1.63h-7.59Z"/>
    <path d="M800.49,452.3l-2.83-4.03-3.74-5.29h2.11l2.87,4.18,3.71,5.13h-2.11Zm-6.57,0l3.71-5.13,2.87-4.18h2.11l-3.85,5.29-2.72,4.03h-2.11Z"/>
    <path d="M804.88,452.3v-1.97c1.93-1.07,3.37-2.18,4.32-3.34,.95-1.16,1.43-2.36,1.43-3.59,0-.71-.18-1.25-.53-1.61s-.88-.54-1.6-.54c-.47,0-.97,.14-1.49,.41s-.96,.64-1.33,1.1l-1.21-1.2c.4-.58,.98-1.05,1.72-1.4s1.52-.53,2.34-.53c1.32,0,2.3,.31,2.96,.94,.65,.62,.98,1.57,.98,2.83s-.4,2.48-1.2,3.64c-.8,1.16-2.02,2.28-3.65,3.35v1.9h-2.74Zm.53,0v-1.63h7.59v1.63h-7.59Z"/>
    <path d="M821.62,452.3l-2.83-4.03-3.74-5.29h2.11l2.87,4.18,3.71,5.13h-2.11Zm-6.57,0l3.71-5.13,2.87-4.18h2.11l-3.85,5.29-2.72,4.03h-2.11Z"/>
    <path d="M826.17,452.3v-1.67h3.34v1.67h-3.34Zm.18-9.65v-1.78l2.99-1.05v1.81l-2.99,1.02Zm2.99,9.65v-12.48h1.76v12.48h-1.76Zm1.58,0v-1.67h3.01v1.67h-3.01Z"/>
  </g>
  <g>
    <path d="M854.98,452.3v-1.48h1.75v-9.62h-1.75v-1.48h5.24v1.48h-1.75v9.62h1.75v1.48h-5.24Z"/>
    <path d="M866.35,445.42l-1.73-3.15h-.05v10.03h-1.69v-12.57h1.95l4.12,6.88,1.73,3.15h.05v-10.03h1.69v12.57h-1.94l-4.12-6.88Z"/>
    <path d="M880.05,441.28v11.02h-1.75v-11.02h-3.89v-1.55h9.51v1.55h-3.87Z"/>
    <path d="M885.32,448.88c0-1.69,1.01-2.68,2.52-3.1v-.14c-1.3-.45-2.14-1.49-2.14-2.93,0-1.91,1.48-3.19,4.03-3.19s4.03,1.28,4.03,3.19c0,1.44-.85,2.48-2.14,2.93v.14c1.51,.41,2.52,1.4,2.52,3.1,0,2.07-1.53,3.64-4.41,3.64s-4.41-1.57-4.41-3.64Zm6.99,.05v-.38c0-1.33-.94-2.12-2.58-2.12s-2.57,.79-2.57,2.12v.38c0,1.33,.94,2.12,2.57,2.12s2.58-.79,2.58-2.12Zm-.29-5.8v-.27c0-1.22-.81-1.89-2.29-1.89s-2.29,.67-2.29,1.89v.27c0,1.22,.81,1.89,2.29,1.89s2.29-.67,2.29-1.89Z"/>
  </g>
  <g>
    <path d="M727.03,474.49v-12.57h7.83v1.55h-6.09v3.66h5.64v1.55h-5.64v4.27h6.09v1.55h-7.83Z"/>
    <path d="M739.49,474.49l-3.22-9.33h1.67l1.53,4.47,.97,3.22h.11l.99-3.22,1.55-4.47h1.6l-3.24,9.33h-1.96Z"/>
    <path d="M745.68,469.83c0-2.95,1.64-4.88,4.23-4.88s4.09,1.98,4.09,4.59v.7h-6.57v.38c0,1.55,.95,2.67,2.63,2.67,1.17,0,2.02-.56,2.52-1.51l1.08,.92c-.65,1.21-2,2.02-3.74,2.02-2.59,0-4.23-1.93-4.23-4.88Zm1.75-.88v.13h4.79v-.18c0-1.55-.9-2.59-2.3-2.59s-2.49,1.12-2.49,2.65Z"/>
    <path d="M756.3,474.49v-9.33h1.67v1.78h.09c.31-.92,1.13-1.78,2.63-1.78h.56v1.67h-.83c-1.55,0-2.45,.61-2.45,1.53v6.12h-1.67Z"/>
    <path d="M768.87,465.16h1.62l-4.05,11.36c-.43,1.17-.88,1.57-2.3,1.57h-.92v-1.42h1.53l.63-1.8-3.46-9.71h1.67l2.07,5.96,.49,1.75h.09l.54-1.75,2.09-5.96Z"/>
    <path d="M784.72,474.49h-8.36v-1.73l4.05-3.69c1.22-1.1,2.03-2.25,2.03-3.44v-.22c0-1.3-.79-2.14-2.2-2.14-1.48,0-2.16,.88-2.48,2.04l-1.55-.59c.5-1.53,1.67-3.01,4.14-3.01s3.96,1.53,3.96,3.67c0,2-1.24,3.35-2.9,4.79l-3.11,2.77h6.41v1.55Z"/>
    <path d="M786.86,471.07c0-1.69,1.01-2.68,2.52-3.1v-.14c-1.3-.45-2.14-1.49-2.14-2.93,0-1.91,1.48-3.19,4.03-3.19s4.03,1.28,4.03,3.19c0,1.44-.85,2.48-2.14,2.93v.14c1.51,.41,2.52,1.4,2.52,3.1,0,2.07-1.53,3.64-4.41,3.64s-4.41-1.57-4.41-3.64Zm6.99,.05v-.38c0-1.33-.94-2.12-2.58-2.12s-2.57,.79-2.57,2.12v.38c0,1.33,.94,2.12,2.57,2.12s2.58-.79,2.58-2.12Zm-.29-5.8v-.27c0-1.22-.81-1.89-2.29-1.89s-2.29,.67-2.29,1.89v.27c0,1.22,.81,1.89,2.29,1.89s2.29-.67,2.29-1.89Z"/>
    <path d="M797.66,471.07c0-1.69,1.01-2.68,2.52-3.1v-.14c-1.3-.45-2.14-1.49-2.14-2.93,0-1.91,1.48-3.19,4.03-3.19s4.03,1.28,4.03,3.19c0,1.44-.85,2.48-2.14,2.93v.14c1.51,.41,2.52,1.4,2.52,3.1,0,2.07-1.53,3.64-4.41,3.64s-4.41-1.57-4.41-3.64Zm6.99,.05v-.38c0-1.33-.94-2.12-2.58-2.12s-2.57,.79-2.57,2.12v.38c0,1.33,.94,2.12,2.57,2.12s2.58-.79,2.58-2.12Zm-.29-5.8v-.27c0-1.22-.81-1.89-2.29-1.89s-2.29,.67-2.29,1.89v.27c0,1.22,.81,1.89,2.29,1.89s2.29-.67,2.29-1.89Z"/>
    <path d="M812.39,469.83c0-2.99,1.53-4.88,4.2-4.88,1.84,0,2.99,.9,3.53,2.23l-1.39,.68c-.31-.92-1.06-1.48-2.14-1.48-1.6,0-2.41,1.1-2.41,2.63v1.62c0,1.53,.81,2.63,2.41,2.63,1.13,0,1.91-.58,2.38-1.58l1.22,.76c-.59,1.4-1.82,2.27-3.6,2.27-2.67,0-4.2-1.89-4.2-4.88Z"/>
    <path d="M823.93,474.49c-1.15,0-1.75-.68-1.75-1.71v-11.61h1.67v11.9h1.33v1.42h-1.26Z"/>
    <path d="M826.55,469.83c0-2.97,1.71-4.88,4.25-4.88s4.25,1.91,4.25,4.88-1.71,4.88-4.25,4.88-4.25-1.91-4.25-4.88Zm6.72,.7v-1.4c0-1.82-1.01-2.74-2.47-2.74s-2.47,.92-2.47,2.74v1.4c0,1.82,1.01,2.74,2.47,2.74s2.47-.92,2.47-2.74Z"/>
    <path d="M836.63,469.83c0-2.99,1.53-4.88,4.2-4.88,1.84,0,2.99,.9,3.53,2.23l-1.39,.68c-.31-.92-1.06-1.48-2.14-1.48-1.6,0-2.41,1.1-2.41,2.63v1.62c0,1.53,.81,2.63,2.41,2.63,1.13,0,1.91-.58,2.38-1.58l1.22,.76c-.59,1.4-1.82,2.27-3.6,2.27-2.67,0-4.2-1.89-4.2-4.88Z"/>
    <path d="M846.42,461.17h1.67v8.3h.09l1.33-1.64,2.43-2.67h1.98l-3.31,3.6,3.75,5.73h-2.02l-2.92-4.65-1.33,1.42v3.22h-1.67v-13.32Z"/>
    <path d="M859.69,469.83c0-2.99,1.53-4.88,4.2-4.88,1.84,0,2.99,.9,3.53,2.23l-1.39,.68c-.31-.92-1.06-1.48-2.14-1.48-1.6,0-2.41,1.1-2.41,2.63v1.62c0,1.53,.81,2.63,2.41,2.63,1.13,0,1.91-.58,2.38-1.58l1.22,.76c-.59,1.4-1.82,2.27-3.6,2.27-2.67,0-4.2-1.89-4.2-4.88Z"/>
    <path d="M875.23,465.16h1.62l-4.05,11.36c-.43,1.17-.88,1.57-2.3,1.57h-.92v-1.42h1.53l.63-1.8-3.46-9.71h1.67l2.07,5.96,.49,1.75h.09l.54-1.75,2.09-5.96Z"/>
    <path d="M877.82,469.83c0-2.99,1.53-4.88,4.2-4.88,1.84,0,2.99,.9,3.53,2.23l-1.39,.68c-.31-.92-1.06-1.48-2.14-1.48-1.6,0-2.41,1.1-2.41,2.63v1.62c0,1.53,.81,2.63,2.41,2.63,1.13,0,1.91-.58,2.38-1.58l1.22,.76c-.59,1.4-1.82,2.27-3.6,2.27-2.67,0-4.2-1.89-4.2-4.88Z"/>
    <path d="M889.35,474.49c-1.15,0-1.75-.68-1.75-1.71v-11.61h1.67v11.9h1.33v1.42h-1.26Z"/>
    <path d="M891.96,469.83c0-2.95,1.64-4.88,4.23-4.88s4.09,1.98,4.09,4.59v.7h-6.57v.38c0,1.55,.95,2.67,2.63,2.67,1.17,0,2.02-.56,2.52-1.51l1.08,.92c-.65,1.21-2,2.02-3.74,2.02-2.59,0-4.23-1.93-4.23-4.88Zm1.75-.88v.13h4.79v-.18c0-1.55-.9-2.59-2.3-2.59s-2.49,1.12-2.49,2.65Z"/>
    <path d="M902.6,466.41v-.27c0-.65,.36-1.12,1.19-1.12s1.19,.47,1.19,1.12v.27c0,.65-.36,1.12-1.19,1.12s-1.19-.47-1.19-1.12Zm0,7.18v-.27c0-.65,.36-1.12,1.19-1.12s1.19,.47,1.19,1.12v.27c0,.65-.36,1.12-1.19,1.12s-1.19-.47-1.19-1.12Z"/>
  </g>
  <g>
    <path d="M730.54,493.1v3.85h-1.28v-3.62c-.5,.08-1.46,.23-2.88,.45l-.23-1.35c.91-.11,1.95-.25,3.11-.43v-2.63h-2.7v-1.24c.38-1.03,.82-2.4,1.31-4.1h-1.6v-1.24h1.93c.3-1.26,.49-2.08,.58-2.45l1.24,.16c-.22,.96-.4,1.72-.56,2.29h2.57v1.24h-2.92c-.43,1.48-.86,2.84-1.3,4.1h1.44v-2.75h1.28v2.75h1.26v1.24h-1.26v2.43c.17-.02,.63-.1,1.39-.23l.11,1.24c-.64,.12-1.13,.22-1.49,.29Zm9.14-8.37v1.01h-5.11v-.95c-.68,.58-1.46,1.12-2.32,1.64l-.79-1.13c1.25-.7,2.31-1.46,3.19-2.3,.84-.84,1.54-1.76,2.09-2.75l1.33,.29c-.1,.18-.2,.35-.31,.52,1.33,1.72,3.01,3.03,5.02,3.94l-.72,1.22c-.89-.47-1.68-.96-2.38-1.48Zm-3.91,8.66h-2.09v3.53h-1.17v-9.88h4.43v8.12c0,.53-.12,.93-.36,1.21-.25,.25-.62,.4-1.12,.43-.42,.02-.77,.02-1.06-.02l-.23-1.24c.58,.06,.88,.09,.92,.09,.28-.04,.46-.1,.54-.18,.1-.12,.14-.33,.14-.63v-1.42Zm0-3.67v-1.6h-2.09v1.6h2.09Zm0,2.63v-1.6h-2.09v1.6h2.09Zm3.74-7.74c-.1-.07-.19-.15-.29-.23-.8-.66-1.52-1.43-2.14-2.32-.68,.97-1.45,1.82-2.3,2.56h4.73Zm-1.37,3.1h1.03v6.14h-1.03v-6.14Zm2.32-.79h1.17v7.88c0,.67-.13,1.16-.4,1.46-.25,.28-.71,.45-1.39,.52-.35,.02-.79,.02-1.33-.02l-.29-1.3c.53,.05,.97,.07,1.31,.07s.58-.07,.72-.22c.13-.16,.2-.42,.2-.79v-7.61Z"/>
    <path d="M754.39,495.92h-9.4v-4.61h1.13v3.54h3.54v-4.88h-4.25v-4.65h1.13v3.58h3.12v-4.85h1.16v4.85h3.14v-3.58h1.13v4.65h-4.28v4.88h3.57v-3.53h1.13v5.18h-1.13v-.59Z"/>
  </g>
  <g>
    <path d="M792.27,495.5v-1.97c1.93-1.07,3.37-2.18,4.32-3.34,.95-1.16,1.43-2.36,1.43-3.59,0-.71-.18-1.25-.53-1.61s-.88-.54-1.6-.54c-.47,0-.97,.14-1.49,.41s-.96,.64-1.33,1.1l-1.21-1.2c.4-.58,.98-1.05,1.72-1.4s1.52-.53,2.34-.53c1.32,0,2.3,.31,2.96,.94,.65,.62,.98,1.57,.98,2.83s-.4,2.48-1.2,3.64c-.8,1.16-2.02,2.28-3.65,3.35v1.9h-2.74Zm.53,0v-1.63h7.59v1.63h-7.59Z"/>
    <path d="M809,495.5l-2.83-4.03-3.74-5.29h2.11l2.87,4.18,3.71,5.13h-2.11Zm-6.57,0l3.71-5.13,2.87-4.18h2.11l-3.85,5.29-2.72,4.03h-2.11Z"/>
  </g>
  <g>
    <path d="M844.99,495.5v-12.57h7.65v1.55h-5.91v3.78h5.33v1.55h-5.33v5.69h-1.75Z"/>
    <path d="M855.17,495.5v-12.57h1.75v11.02h5.24v1.55h-6.99Z"/>
    <path d="M863.09,489.21c0-4.23,2.11-6.5,5.37-6.5s5.37,2.27,5.37,6.5-2.11,6.5-5.37,6.5-5.37-2.27-5.37-6.5Zm8.86,1.03v-2.05c0-2.39-1.4-3.91-3.49-3.91s-3.49,1.51-3.49,3.91v2.05c0,2.39,1.4,3.91,3.49,3.91s3.49-1.51,3.49-3.91Z"/>
    <path d="M883.91,495.5l-1.19-3.55h-4.9l-1.21,3.55h-1.76l4.36-12.57h2.2l4.34,12.57h-1.84Zm-3.6-10.96h-.09l-1.98,5.87h4.05l-1.98-5.87Z"/>
    <path d="M890.96,484.48v11.02h-1.75v-11.02h-3.89v-1.55h9.51v1.55h-3.87Z"/>
    <path d="M899.96,488.19c1.62,0,2.43-.83,2.43-1.94v-.13c0-1.24-.86-1.89-2.14-1.89s-2.05,.59-2.59,1.55l-1.22-.99c.7-1.06,1.82-2.07,3.85-2.07,2.25,0,3.94,1.17,3.94,3.21,0,1.62-1.08,2.59-2.41,2.92v.07c1.39,.27,2.65,1.28,2.65,3.13,0,2.18-1.75,3.67-4.36,3.67-2.25,0-3.4-1.08-4.2-2.2l1.31-.99c.61,.99,1.37,1.67,2.86,1.67,1.66,0,2.56-.79,2.56-2.18v-.16c0-1.39-.9-2.18-2.56-2.18h-1.46v-1.5h1.33Z"/>
    <path d="M915.69,495.5h-8.35v-1.73l4.05-3.69c1.22-1.1,2.03-2.25,2.03-3.44v-.22c0-1.3-.79-2.14-2.2-2.14-1.48,0-2.16,.88-2.48,2.04l-1.55-.59c.5-1.53,1.67-3.01,4.14-3.01s3.96,1.53,3.96,3.67c0,2-1.24,3.35-2.9,4.79l-3.11,2.77h6.41v1.55Z"/>
  </g>
  <g class="cls-13">
    <path class="cls-1" d="M452.89,358.79c11.92,3.95,18.39,16.81,14.44,28.73-3.95,11.92-16.81,18.39-28.74,14.44-11.92-3.95-18.39-16.81-14.44-28.73,2.24-6.76,7.51-12.08,14.26-14.38l7.33,21.53,7.15-21.59Z"/>
  </g>
  <rect class="cls-10" x="437.04" y="353.16" width="18.72" height="29.16"/>
  <polygon class="cls-16" points="455.4 364.19 450.95 356.65 459.71 356.53 455.4 364.19"/>
  <rect class="cls-10" x="437.53" y="351.86" width="9.43" height="20.72" transform="translate(-123.24 278.52) rotate(-30.9)"/>
  <g class="cls-14">
    <path class="cls-21" d="M772.3,271.02h70.48c6.18,0,11.2,5.02,11.2,11.2v44.8c0,6.18-5.02,11.2-11.2,11.2h-70.48c-6.18,0-11.2-5.02-11.2-11.2v-44.8c0-6.18,5.02-11.2,11.2-11.2Z"/>
    <path class="cls-5" d="M772.3,271.02h70.48c6.18,0,11.2,5.02,11.2,11.2v44.8c0,6.18-5.02,11.2-11.2,11.2h-70.48c-6.18,0-11.2-5.02-11.2-11.2v-44.8c0-6.18,5.02-11.2,11.2-11.2Z"/>
  </g>
  <g>
    <path d="M775.24,308.82l1.24-1.12c.88,1.13,1.93,1.75,3.33,1.75,1.71,0,2.63-.88,2.63-2.21,0-1.1-.59-1.67-2.16-2.02l-1.06-.22c-2.36-.49-3.6-1.55-3.6-3.51,0-2.23,1.69-3.51,4.27-3.51,1.89,0,3.24,.7,4.2,2l-1.28,1.03c-.67-.92-1.58-1.49-3.01-1.49-1.53,0-2.45,.67-2.45,1.91,0,1.12,.7,1.62,2.2,1.94l1.06,.22c2.47,.54,3.57,1.64,3.57,3.57,0,2.32-1.64,3.83-4.43,3.83-2.05,0-3.49-.83-4.5-2.16Z"/>
    <path d="M786.38,298.58v-.25c0-.54,.31-.92,1.01-.92s1.01,.38,1.01,.92v.25c0,.54-.31,.92-1.01,.92s-1.01-.38-1.01-.92Zm.16,2.86h1.67v9.33h-1.67v-9.33Z"/>
    <path d="M794.61,314.58c-2.97,0-4.16-.83-4.16-2.27,0-1.01,.58-1.57,1.53-1.8v-.2c-.59-.23-.92-.7-.92-1.37,0-.94,.7-1.4,1.62-1.62v-.07c-1.1-.52-1.73-1.55-1.73-2.83,0-1.89,1.37-3.21,3.6-3.21,.65,0,1.22,.13,1.73,.32v-.2c0-.77,.34-1.28,1.13-1.28h1.42v1.4h-1.84v.5c.76,.56,1.17,1.42,1.17,2.45,0,1.89-1.37,3.19-3.62,3.19-.36,0-.74-.04-1.04-.11-.54,.16-1.06,.47-1.06,.99s.52,.7,1.37,.7h2.12c2.3,0,3.29,.95,3.29,2.52,0,1.93-1.48,2.86-4.63,2.86Zm1.22-3.85h-3.13c-.52,.27-.76,.67-.76,1.19,0,.77,.56,1.39,2.02,1.39h1.26c1.58,0,2.45-.47,2.45-1.42,0-.7-.47-1.15-1.84-1.15Zm.67-6.07v-.47c0-1.13-.74-1.69-1.93-1.69s-1.93,.56-1.93,1.69v.47c0,1.13,.74,1.69,1.93,1.69s1.93-.56,1.93-1.69Z"/>
    <path d="M800.82,310.77v-9.33h1.67v1.53h.09c.4-.96,1.24-1.75,2.48-1.75s2.34,.58,2.83,1.89h.04c.34-1.01,1.28-1.89,2.84-1.89,1.87,0,2.99,1.31,2.99,3.58v5.96h-1.67v-5.71c0-1.57-.59-2.38-1.89-2.38-1.08,0-2.07,.56-2.07,1.69v6.39h-1.67v-5.71c0-1.57-.59-2.38-1.87-2.38-1.06,0-2.09,.56-2.09,1.69v6.39h-1.67Z"/>
    <path d="M815.99,306.1c0-2.97,1.71-4.88,4.25-4.88s4.25,1.91,4.25,4.88-1.71,4.88-4.25,4.88-4.25-1.91-4.25-4.88Zm6.72,.7v-1.4c0-1.82-1.01-2.74-2.47-2.74s-2.47,.92-2.47,2.74v1.4c0,1.82,1.01,2.74,2.47,2.74s2.47-.92,2.47-2.74Z"/>
    <path d="M826.58,298.58v-.25c0-.54,.31-.92,1.01-.92s1.01,.38,1.01,.92v.25c0,.54-.31,.92-1.01,.92s-1.01-.38-1.01-.92Zm.16,2.86h1.67v9.33h-1.67v-9.33Z"/>
    <path d="M837.32,309.24h-.07c-.43,1.15-1.41,1.75-2.68,1.75-2.34,0-3.75-1.85-3.75-4.88s1.41-4.88,3.75-4.88c1.28,0,2.25,.59,2.68,1.75h.07v-5.53h1.67v13.32h-1.67v-1.53Zm0-1.42v-3.42c0-.99-1.01-1.71-2.27-1.71-1.49,0-2.45,1.06-2.45,2.63v1.58c0,1.57,.95,2.63,2.45,2.63,1.26,0,2.27-.72,2.27-1.71Z"/>
  </g>
  <rect class="cls-26" x="894.06" y="267.18" width="31.2" height="74.76"/>
  <rect class="cls-7" x="894.06" y="267.18" width="31.2" height="74.76"/>
  <g class="cls-23">
    <path class="cls-15" d="M901.2,287.76c0-4.64,3.76-8.4,8.4-8.4s8.4,3.76,8.4,8.4-3.76,8.4-8.4,8.4-8.4-3.76-8.4-8.4"/>
    <circle class="cls-3" cx="909.6" cy="287.76" r="8.4" transform="translate(479.85 1139.52) rotate(-80.78)"/>
  </g>
  <g class="cls-19">
    <path class="cls-15" d="M901.2,321.36c0-4.64,3.76-8.4,8.4-8.4s8.4,3.76,8.4,8.4-3.76,8.4-8.4,8.4-8.4-3.76-8.4-8.4"/>
    <circle class="cls-3" cx="909.6" cy="321.36" r="8.4" transform="translate(446.69 1167.74) rotate(-80.78)"/>
  </g>
  <g>
    <path d="M888.33,360.67c0-3.3,1.64-5.07,4.18-5.07s4.18,1.77,4.18,5.07-1.64,5.07-4.18,5.07-4.18-1.77-4.18-5.07Zm6.91,.8v-1.6c0-1.87-1.09-3.05-2.72-3.05s-2.72,1.18-2.72,3.05v1.6c0,1.87,1.09,3.05,2.72,3.05s2.72-1.18,2.72-3.05Z"/>
    <path d="M903.1,364.38h-.07c-.27,.7-.83,1.36-2.04,1.36-1.49,0-2.41-1.02-2.41-2.79v-4.65h1.31v4.45c0,1.22,.52,1.85,1.54,1.85,.83,0,1.67-.42,1.67-1.33v-4.97h1.3v7.27h-1.3v-1.19Z"/>
    <path d="M908.49,365.57c-.9,0-1.38-.53-1.38-1.38v-4.79h-1.17v-1.11h.65c.49,0,.65-.18,.65-.67v-1.33h1.18v2.01h1.56v1.11h-1.56v5.05h1.45v1.11h-1.38Z"/>
    <path d="M911.73,358.3h1.31v1.19h.06c.34-.9,1.09-1.36,2.09-1.36,1.83,0,2.92,1.45,2.92,3.8s-1.09,3.8-2.92,3.8c-1,0-1.75-.46-2.09-1.36h-.06v4h-1.31v-10.08Zm4.98,4.25v-1.24c0-1.22-.74-2.05-1.91-2.05-.98,0-1.77,.56-1.77,1.33v2.67c0,.77,.79,1.33,1.77,1.33,1.17,0,1.91-.83,1.91-2.05Z"/>
    <path d="M924.36,364.38h-.07c-.27,.7-.83,1.36-2.04,1.36-1.49,0-2.41-1.02-2.41-2.79v-4.65h1.31v4.45c0,1.22,.52,1.85,1.54,1.85,.83,0,1.67-.42,1.67-1.33v-4.97h1.3v7.27h-1.3v-1.19Z"/>
    <path d="M929.75,365.57c-.9,0-1.38-.53-1.38-1.38v-4.79h-1.17v-1.11h.65c.49,0,.65-.18,.65-.67v-1.33h1.18v2.01h1.56v1.11h-1.56v5.05h1.45v1.11h-1.38Z"/>
  </g>
  <line class="cls-9" x1="745.37" y1="294" x2="736.08" y2="318"/>
  <line class="cls-9" x1="878.57" y1="294" x2="869.28" y2="318"/>
  <g>
    <path d="M489.73,386.98h-6.51v-1.35l3.16-2.88c.96-.86,1.59-1.75,1.59-2.68v-.17c0-1.01-.62-1.67-1.71-1.67-1.15,0-1.68,.69-1.94,1.59l-1.21-.46c.39-1.19,1.31-2.34,3.23-2.34s3.09,1.19,3.09,2.86c0,1.56-.97,2.61-2.26,3.73l-2.43,2.16h5v1.21Z"/>
    <path d="M491.39,384.31c0-1.32,.79-2.09,1.96-2.42v-.11c-1.01-.35-1.67-1.17-1.67-2.29,0-1.49,1.15-2.48,3.14-2.48s3.14,1,3.14,2.48c0,1.12-.66,1.94-1.67,2.29v.11c1.18,.32,1.96,1.1,1.96,2.42,0,1.61-1.19,2.83-3.44,2.83s-3.44-1.22-3.44-2.83Zm5.45,.04v-.29c0-1.04-.73-1.66-2.01-1.66s-2.01,.62-2.01,1.66v.29c0,1.04,.73,1.66,2.01,1.66s2.01-.62,2.01-1.66Zm-.22-4.52v-.21c0-.96-.63-1.47-1.78-1.47s-1.78,.52-1.78,1.47v.21c0,.96,.63,1.47,1.78,1.47s1.78-.52,1.78-1.47Z"/>
    <path d="M499.8,384.31c0-1.32,.79-2.09,1.96-2.42v-.11c-1.01-.35-1.67-1.17-1.67-2.29,0-1.49,1.15-2.48,3.14-2.48s3.14,1,3.14,2.48c0,1.12-.66,1.94-1.67,2.29v.11c1.18,.32,1.96,1.1,1.96,2.42,0,1.61-1.19,2.83-3.44,2.83s-3.44-1.22-3.44-2.83Zm5.45,.04v-.29c0-1.04-.73-1.66-2.01-1.66s-2.01,.62-2.01,1.66v.29c0,1.04,.73,1.66,2.01,1.66s2.01-.62,2.01-1.66Zm-.22-4.52v-.21c0-.96-.63-1.47-1.78-1.47s-1.78,.52-1.78,1.47v.21c0,.96,.63,1.47,1.78,1.47s1.78-.52,1.78-1.47Z"/>
    <path d="M511.19,383.34c0-2.33,1.19-3.8,3.27-3.8,1.43,0,2.33,.7,2.75,1.74l-1.08,.53c-.24-.72-.83-1.15-1.67-1.15-1.25,0-1.88,.86-1.88,2.05v1.26c0,1.19,.63,2.05,1.88,2.05,.88,0,1.49-.45,1.85-1.23l.95,.59c-.46,1.09-1.42,1.77-2.81,1.77-2.08,0-3.27-1.47-3.27-3.8Z"/>
    <path d="M523.27,379.71h1.26l-3.16,8.86c-.34,.91-.69,1.22-1.8,1.22h-.72v-1.11h1.19l.49-1.4-2.7-7.57h1.31l1.61,4.65,.38,1.36h.07l.42-1.36,1.63-4.65Z"/>
    <path d="M525.24,383.34c0-2.33,1.19-3.8,3.27-3.8,1.43,0,2.33,.7,2.75,1.74l-1.08,.53c-.24-.72-.83-1.15-1.67-1.15-1.25,0-1.88,.86-1.88,2.05v1.26c0,1.19,.63,2.05,1.88,2.05,.88,0,1.49-.45,1.85-1.23l.95,.59c-.46,1.09-1.42,1.77-2.81,1.77-2.08,0-3.27-1.47-3.27-3.8Z"/>
    <path d="M534.21,386.98c-.9,0-1.36-.53-1.36-1.33v-9.05h1.31v9.28h1.04v1.11h-.98Z"/>
    <path d="M536.29,383.34c0-2.3,1.28-3.8,3.3-3.8s3.19,1.54,3.19,3.58v.55h-5.12v.29c0,1.21,.74,2.08,2.05,2.08,.91,0,1.57-.44,1.96-1.18l.84,.72c-.5,.94-1.56,1.57-2.92,1.57-2.02,0-3.3-1.5-3.3-3.8Zm1.36-.69v.1h3.73v-.14c0-1.21-.7-2.02-1.8-2.02s-1.94,.87-1.94,2.06Z"/>
    <path d="M543.93,385.74l.88-.76c.55,.69,1.22,1.08,2.11,1.08s1.43-.41,1.43-1.08c0-.53-.28-.91-1.17-1.04l-.62-.1c-1.39-.2-2.36-.77-2.36-2.12,0-1.43,1.11-2.19,2.64-2.19,1.24,0,2.01,.44,2.62,1.17l-.83,.79c-.35-.46-.97-.87-1.84-.87s-1.33,.41-1.33,1.03,.42,.91,1.26,1.04l.62,.1c1.6,.24,2.26,.94,2.26,2.06,0,1.42-1.07,2.3-2.78,2.3-1.35,0-2.23-.55-2.91-1.4Z"/>
  </g>
</svg>